<?xml version="1.0" encoding="utf-8"?>
<!-- Generator: Adobe Illustrator 22.1.0, SVG Export Plug-In . SVG Version: 6.00 Build 0)  -->
<svg version="1.1" id="Layer_1" xmlns="http://www.w3.org/2000/svg" xmlns:xlink="http://www.w3.org/1999/xlink" x="0px" y="0px"
	 viewBox="0 0 496.1 102" style="enable-background:new 0 0 496.1 102;" xml:space="preserve">
<style type="text/css">
	.st0{fill:#1A3869;}
	.st1{fill-rule:evenodd;clip-rule:evenodd;}
	.st2{fill:#FFFFFF;}
	.st3{fill:#40C0C0;}
	.st4{fill:#0076C0;}
</style>
<g>
	<path class="st0" d="M328,73.1h-5.1c-0.4,0-0.8-0.3-0.9-0.7l-4.4-12h-18.6l-4.4,12c-0.1,0.4-0.5,0.7-0.9,0.7h-4.7
		c-0.3,0-0.6-0.2-0.8-0.4c-0.2-0.3-0.2-0.6-0.1-0.9l16.9-43.3c0.2-0.4,0.5-0.6,0.9-0.6h5.3c0.4,0,0.8,0.3,0.9,0.6l16.9,43.3
		c0.1,0.3,0.1,0.7-0.1,0.9C328.6,72.9,328.3,73.1,328,73.1z M300.8,55h14.7l-7.3-19.9L300.8,55z"/>
	<path class="st0" d="M372.1,73.1h-5c-0.3,0-0.6-0.2-0.8-0.4l-24.5-35v34.4c0,0.6-0.4,1-1,1h-4.4c-0.6,0-1-0.4-1-1V28.8
		c0-0.6,0.4-1,1-1h5.1c0.3,0,0.6,0.2,0.8,0.4l24.4,34.9V28.8c0-0.6,0.4-1,1-1h4.4c0.6,0,1,0.4,1,1v43.3
		C373.1,72.7,372.7,73.1,372.1,73.1z"/>
	<path class="st0" d="M432.1,73.1h-4.5c-0.6,0-1-0.4-1-1V33.5h-15.2c-0.6,0-1-0.4-1-1v-3.7c0-0.6,0.4-1,1-1h36.9c0.6,0,1,0.4,1,1
		v3.7c0,0.6-0.4,1-1,1h-15.2v38.6C433.1,72.7,432.6,73.1,432.1,73.1z"/>
	<path class="st0" d="M471.9,74.3c-3.2,0-6.3-0.6-9.1-1.9c-2.8-1.2-5.3-3-7.3-5.1c-2.1-2.1-3.7-4.7-4.9-7.6c-1.2-2.9-1.8-6-1.8-9.3
		c0-3.3,0.6-6.4,1.8-9.3c1.2-2.9,2.8-5.4,4.9-7.5c2-2.1,4.5-3.9,7.3-5.1c2.8-1.2,5.9-1.9,9.1-1.9c3.2,0,6.3,0.6,9.1,1.9
		c2.8,1.2,5.3,3,7.4,5.1c2.1,2.1,3.7,4.7,4.9,7.5c1.2,2.9,1.8,6,1.8,9.3c0,3.3-0.6,6.4-1.8,9.3c-1.2,2.9-2.8,5.4-4.9,7.6
		c-2.1,2.1-4.5,3.9-7.4,5.1C478.2,73.6,475.1,74.3,471.9,74.3z M471.9,32.6c-2.5,0-4.7,0.5-6.7,1.4c-2,0.9-3.7,2.2-5.1,3.8
		c-1.4,1.6-2.5,3.5-3.3,5.7c-0.8,2.1-1.2,4.5-1.2,6.9c0,2.4,0.4,4.7,1.2,6.8c0.8,2.1,1.9,4,3.3,5.7c1.4,1.6,3.1,2.9,5.1,3.9
		c2,0.9,4.2,1.4,6.7,1.4c2.5,0,4.7-0.5,6.8-1.4c2-0.9,3.7-2.2,5.2-3.9c1.4-1.6,2.5-3.5,3.3-5.7c0.8-2.1,1.2-4.4,1.2-6.8
		c0-2.4-0.4-4.7-1.2-6.9c-0.8-2.1-1.9-4-3.3-5.7c-1.4-1.6-3.2-2.9-5.2-3.8C476.6,33.1,474.4,32.6,471.9,32.6z"/>
	<path class="st0" d="M396.4,74.3c-2.1,0-4.1-0.3-5.8-0.7c-1.7-0.5-3.3-1.1-4.8-1.9c-1.4-0.8-2.7-1.6-3.7-2.5c-0.8-0.7-1.4-1.3-2-2
		c-0.4-0.4-0.3-1,0.1-1.4l3.2-2.9c0.4-0.4,1-0.3,1.4,0.1c0.5,0.5,1,1,1.5,1.5c0.8,0.7,1.7,1.4,2.7,2c1,0.6,2.1,1.1,3.3,1.4
		c1.2,0.4,2.6,0.5,4,0.5c3,0,5.3-0.7,7-2c1.7-1.4,2.5-3.2,2.5-5.5c0-2.5-0.9-4.3-2.8-5.6c-1.9-1.2-4.7-2.3-8.2-3
		c-1.9-0.4-3.7-1-5.3-1.7c-1.6-0.7-3-1.6-4.1-2.7c-1.1-1.1-2-2.3-2.7-3.8c-0.6-1.4-1-3.1-1-4.9c0-1.7,0.3-3.3,1-4.8
		c0.6-1.5,1.6-2.8,2.9-3.9c1.3-1.1,2.9-2,4.8-2.7s4.1-1,6.6-1c2.2,0,4.1,0.2,5.7,0.7c0.8,0.2,1.6,0.5,2.3,0.8
		c0.4,0.2,0.6,0.5,0.6,0.9v4.4c0,0.1,0,0.1,0,0.2c0,0.3-0.2,0.6-0.4,0.8c-0.2,0.2-0.6,0.2-0.9,0.1c-0.3-0.1-0.6-0.2-0.9-0.4
		c-0.9-0.5-1.9-0.9-2.9-1.3c-1.1-0.3-2.4-0.5-3.8-0.5c-1.4,0-2.7,0.2-3.7,0.6c-1,0.4-1.9,0.9-2.6,1.5c-0.7,0.6-1.2,1.3-1.5,2.1
		c-0.3,0.8-0.5,1.5-0.5,2.3c0,1.1,0.2,2.1,0.7,2.9c0.5,0.8,1.2,1.5,2.1,2.1c0.9,0.6,2,1.1,3.4,1.6c1.3,0.4,2.9,0.8,4.6,1.3
		c1.7,0.4,3.3,0.9,4.9,1.6c1.6,0.7,3,1.5,4.3,2.6c1.3,1.1,2.3,2.5,3,4.1c0.7,1.6,1.1,3.6,1.1,5.9c0,1.9-0.4,3.7-1.2,5.4
		c-0.8,1.6-1.9,3-3.4,4.2c-1.4,1.2-3.1,2.1-5.1,2.8C400.8,73.9,398.7,74.3,396.4,74.3z"/>
</g>
<rect x="155.1" y="0.5" width="1.4" height="101.2"/>
<g>
	<g>
		<path class="st1" d="M6.5,70.6H3.4L3,71.5c-0.1,0.3-0.2,0.5-0.2,0.7c0,0.2,0.1,0.4,0.3,0.5c0.1,0.1,0.4,0.1,0.9,0.2v0.2H1v-0.2
			c0.3,0,0.6-0.2,0.8-0.4c0.2-0.2,0.5-0.7,0.8-1.3l3.1-7h0.1L9,71.3c0.3,0.7,0.5,1.1,0.7,1.3c0.1,0.1,0.4,0.2,0.6,0.2v0.2H6.1v-0.2
			h0.2c0.3,0,0.6,0,0.7-0.1c0.1-0.1,0.1-0.2,0.1-0.3c0-0.1,0-0.2,0-0.2c0,0-0.1-0.2-0.2-0.5L6.5,70.6L6.5,70.6z M6.2,70.1l-1.3-3
			l-1.3,3H6.2L6.2,70.1z"/>
		<path d="M15.8,67v4.7c0,0.5,0,0.8,0.1,0.9c0.1,0.1,0.3,0.2,0.5,0.2v0.2h-2.5v-0.8c-0.3,0.3-0.6,0.6-0.9,0.8
			c-0.3,0.2-0.6,0.2-1,0.2c-0.3,0-0.6-0.1-0.9-0.3c-0.3-0.2-0.4-0.5-0.5-0.7c-0.1-0.3-0.1-0.8-0.1-1.5v-2.4c0-0.5,0-0.7-0.1-0.9
			c-0.1-0.1-0.3-0.2-0.5-0.2V67h2.5v4.1c0,0.4,0,0.7,0.1,0.8c0,0.1,0.1,0.2,0.2,0.3c0.1,0.1,0.2,0.1,0.3,0.1c0.2,0,0.3,0,0.4-0.1
			c0.2-0.1,0.4-0.3,0.6-0.7v-3.2c0-0.5,0-0.7-0.1-0.9c-0.1-0.1-0.3-0.2-0.5-0.2V67H15.8L15.8,67z"/>
		<path d="M20.7,66.9l0.1,2.1h-0.2c-0.3-0.6-0.5-1-0.8-1.3c-0.3-0.2-0.6-0.3-0.8-0.3c-0.2,0-0.3,0.1-0.5,0.2
			c-0.1,0.1-0.2,0.3-0.2,0.4c0,0.1,0,0.2,0.1,0.3c0.1,0.2,0.5,0.5,1.2,0.9c0.6,0.4,1.1,0.8,1.3,1.1c0.2,0.3,0.3,0.6,0.3,1
			c0,0.3-0.1,0.7-0.3,1c-0.2,0.3-0.4,0.6-0.7,0.7c-0.3,0.2-0.6,0.3-1,0.3c-0.3,0-0.7-0.1-1.2-0.3c-0.1,0-0.2-0.1-0.3-0.1
			c-0.1,0-0.3,0.1-0.4,0.3h-0.2L17,71.1h0.2c0.2,0.6,0.5,1,0.8,1.3c0.3,0.3,0.7,0.4,1,0.4c0.2,0,0.4-0.1,0.5-0.2
			c0.1-0.1,0.2-0.3,0.2-0.5c0-0.2-0.1-0.4-0.2-0.5c-0.1-0.1-0.4-0.4-0.9-0.7c-0.7-0.5-1.1-0.8-1.3-1c-0.3-0.4-0.4-0.7-0.4-1.2
			c0-0.5,0.2-0.9,0.5-1.3c0.3-0.4,0.8-0.6,1.4-0.6c0.3,0,0.6,0.1,1,0.2c0.1,0.1,0.2,0.1,0.3,0.1c0.1,0,0.1,0,0.2,0
			c0,0,0.1-0.1,0.2-0.3H20.7L20.7,66.9z"/>
		<path d="M23.9,64.8V67h1.4v0.6h-1.4v3.7c0,0.4,0,0.6,0,0.7c0,0.1,0.1,0.2,0.2,0.2c0.1,0.1,0.2,0.1,0.2,0.1c0.3,0,0.5-0.2,0.8-0.6
			l0.2,0.1c-0.4,0.8-0.9,1.2-1.7,1.2c-0.4,0-0.7-0.1-1-0.3c-0.3-0.2-0.4-0.5-0.5-0.7c0-0.1-0.1-0.5-0.1-1.2v-3.3h-0.8v-0.2
			c0.5-0.4,1-0.8,1.4-1.2c0.4-0.4,0.7-0.9,1-1.4H23.9L23.9,64.8z"/>
		<path d="M28.3,67v1.4c0.4-0.6,0.8-1,1.1-1.2c0.3-0.2,0.6-0.3,0.9-0.3c0.2,0,0.4,0.1,0.6,0.2c0.1,0.1,0.2,0.4,0.2,0.6
			c0,0.3-0.1,0.5-0.2,0.7c-0.1,0.2-0.3,0.2-0.5,0.2c-0.2,0-0.4-0.1-0.6-0.2c-0.2-0.1-0.3-0.2-0.3-0.2c0,0-0.1,0-0.1,0
			c-0.1,0-0.2,0-0.4,0.1c-0.2,0.1-0.3,0.4-0.4,0.6c-0.1,0.4-0.2,0.9-0.2,1.4v1.4l0,0.4c0,0.2,0,0.4,0,0.5c0.1,0.1,0.1,0.2,0.2,0.3
			c0.1,0.1,0.3,0.1,0.5,0.1v0.2h-3.3v-0.2c0.3,0,0.4-0.1,0.5-0.2c0.1-0.1,0.1-0.5,0.1-1v-3.3c0-0.3,0-0.6-0.1-0.7
			c0-0.1-0.1-0.2-0.2-0.3c-0.1-0.1-0.2-0.1-0.4-0.1V67H28.3L28.3,67z"/>
		<path class="st1" d="M34.3,72.2c-0.7,0.7-1.4,1-2,1c-0.3,0-0.6-0.1-0.9-0.3c-0.2-0.2-0.3-0.5-0.3-0.9c0-0.5,0.2-0.9,0.6-1.2
			c0.4-0.4,1.3-0.9,2.6-1.5v-0.6c0-0.5,0-0.7-0.1-0.9c0-0.1-0.1-0.2-0.3-0.3c-0.1-0.1-0.3-0.1-0.5-0.1c-0.3,0-0.5,0.1-0.7,0.2
			c-0.1,0.1-0.2,0.2-0.2,0.3c0,0.1,0.1,0.2,0.2,0.3c0.2,0.2,0.2,0.4,0.2,0.5c0,0.2-0.1,0.4-0.2,0.5c-0.2,0.1-0.4,0.2-0.6,0.2
			c-0.3,0-0.5-0.1-0.7-0.2c-0.2-0.2-0.3-0.4-0.3-0.6c0-0.3,0.1-0.6,0.4-0.9c0.2-0.3,0.6-0.5,1-0.7c0.4-0.1,0.9-0.2,1.4-0.2
			c0.6,0,1,0.1,1.4,0.4c0.3,0.2,0.6,0.5,0.7,0.8c0.1,0.2,0.1,0.6,0.1,1.3v2.3c0,0.3,0,0.5,0,0.5c0,0.1,0.1,0.1,0.1,0.2
			c0,0,0.1,0.1,0.1,0.1c0.1,0,0.2-0.1,0.3-0.2l0.2,0.2c-0.2,0.3-0.4,0.6-0.7,0.7c-0.2,0.1-0.5,0.2-0.8,0.2c-0.3,0-0.6-0.1-0.8-0.2
			C34.5,72.8,34.4,72.5,34.3,72.2L34.3,72.2z M34.3,71.7v-2c-0.5,0.3-0.9,0.6-1.2,1c-0.2,0.2-0.3,0.5-0.3,0.7c0,0.2,0.1,0.4,0.2,0.5
			c0.1,0.1,0.3,0.2,0.5,0.2C33.8,72.1,34,72,34.3,71.7L34.3,71.7z"/>
		<path d="M39.6,64.3v7.5c0,0.4,0,0.7,0.1,0.8c0.1,0.1,0.3,0.2,0.6,0.2v0.2H37v-0.2c0.3,0,0.5-0.1,0.6-0.2c0.1-0.1,0.1-0.4,0.1-0.8
			v-6.3c0-0.4,0-0.7-0.1-0.8c-0.1-0.1-0.3-0.2-0.6-0.2v-0.2H39.6L39.6,64.3z"/>
		<path class="st1" d="M42.4,64.1c0.3,0,0.5,0.1,0.7,0.3c0.2,0.2,0.3,0.4,0.3,0.7c0,0.3-0.1,0.5-0.3,0.7c-0.2,0.2-0.4,0.3-0.7,0.3
			c-0.3,0-0.5-0.1-0.7-0.3c-0.2-0.2-0.3-0.4-0.3-0.7c0-0.3,0.1-0.5,0.3-0.7C41.8,64.2,42.1,64.1,42.4,64.1L42.4,64.1z M43.3,67v4.8
			c0,0.4,0,0.7,0.1,0.8c0.1,0.1,0.3,0.2,0.6,0.2v0.2h-3.3v-0.2c0.3,0,0.5-0.1,0.6-0.2c0.1-0.1,0.1-0.4,0.1-0.8v-3.5
			c0-0.4,0-0.7-0.1-0.8c-0.1-0.1-0.3-0.2-0.6-0.2V67H43.3L43.3,67z"/>
		<path class="st1" d="M47.5,72.2c-0.7,0.7-1.4,1-2,1c-0.3,0-0.6-0.1-0.9-0.3c-0.2-0.2-0.3-0.5-0.3-0.9c0-0.5,0.2-0.9,0.6-1.2
			c0.4-0.4,1.3-0.9,2.6-1.5v-0.6c0-0.5,0-0.7-0.1-0.9c0-0.1-0.1-0.2-0.3-0.3c-0.1-0.1-0.3-0.1-0.5-0.1c-0.3,0-0.5,0.1-0.7,0.2
			c-0.1,0.1-0.2,0.2-0.2,0.3c0,0.1,0.1,0.2,0.2,0.3c0.2,0.2,0.2,0.4,0.2,0.5c0,0.2-0.1,0.4-0.2,0.5c-0.2,0.1-0.4,0.2-0.6,0.2
			c-0.3,0-0.5-0.1-0.7-0.2c-0.2-0.2-0.3-0.4-0.3-0.6c0-0.3,0.1-0.6,0.4-0.9c0.2-0.3,0.6-0.5,1-0.7c0.4-0.1,0.9-0.2,1.4-0.2
			c0.6,0,1,0.1,1.4,0.4c0.3,0.2,0.6,0.5,0.7,0.8c0.1,0.2,0.1,0.6,0.1,1.3v2.3c0,0.3,0,0.5,0,0.5c0,0.1,0.1,0.1,0.1,0.2
			c0,0,0.1,0.1,0.1,0.1c0.1,0,0.2-0.1,0.3-0.2l0.2,0.2c-0.2,0.3-0.4,0.6-0.7,0.7c-0.2,0.1-0.5,0.2-0.8,0.2c-0.3,0-0.6-0.1-0.8-0.2
			C47.7,72.8,47.6,72.5,47.5,72.2L47.5,72.2z M47.5,71.7v-2c-0.5,0.3-0.9,0.6-1.2,1c-0.2,0.2-0.3,0.5-0.3,0.7c0,0.2,0.1,0.4,0.2,0.5
			c0.1,0.1,0.3,0.2,0.5,0.2C47,72.1,47.2,72,47.5,71.7L47.5,71.7z"/>
		<path d="M52.8,67v0.8c0.3-0.3,0.6-0.6,0.9-0.7c0.3-0.2,0.6-0.2,0.9-0.2c0.4,0,0.7,0.1,1,0.3c0.3,0.2,0.4,0.5,0.5,0.8
			c0.1,0.2,0.1,0.7,0.1,1.4v2.4c0,0.5,0,0.8,0.1,0.9c0.1,0.1,0.3,0.2,0.5,0.2v0.2h-3.1v-0.2c0.2,0,0.4-0.1,0.5-0.3
			c0.1-0.1,0.1-0.4,0.1-0.8v-2.7c0-0.5,0-0.8-0.1-0.9c0-0.1-0.1-0.2-0.2-0.3c-0.1-0.1-0.2-0.1-0.3-0.1c-0.4,0-0.7,0.3-1,0.8v3.2
			c0,0.5,0,0.7,0.1,0.9c0.1,0.1,0.2,0.2,0.5,0.2v0.2h-3.1v-0.2c0.3,0,0.4-0.1,0.5-0.2c0.1-0.1,0.1-0.4,0.1-0.8v-3.4
			c0-0.5,0-0.7-0.1-0.9c-0.1-0.1-0.3-0.2-0.5-0.2V67H52.8L52.8,67z"/>
		<path d="M68.8,64.1v3.1h-0.2c-0.3-0.8-0.7-1.5-1.3-1.9c-0.6-0.4-1.2-0.7-1.9-0.7c-0.7,0-1.2,0.2-1.6,0.6c-0.4,0.4-0.7,0.9-0.9,1.5
			c-0.2,0.7-0.3,1.3-0.3,2c0,0.8,0.1,1.6,0.3,2.2c0.2,0.6,0.5,1.1,1,1.4c0.4,0.3,1,0.4,1.6,0.4c0.2,0,0.4,0,0.6-0.1
			c0.2,0,0.5-0.1,0.7-0.2v-1.8c0-0.3,0-0.6-0.1-0.7c0-0.1-0.1-0.2-0.3-0.3c-0.1-0.1-0.3-0.1-0.5-0.1h-0.2v-0.2h4.3v0.2
			c-0.3,0-0.5,0.1-0.7,0.1c-0.1,0.1-0.2,0.2-0.3,0.3c0,0.1-0.1,0.3-0.1,0.6v1.8c-0.6,0.2-1.1,0.4-1.8,0.6c-0.6,0.1-1.2,0.2-1.9,0.2
			c-0.8,0-1.5-0.1-2.1-0.3c-0.5-0.2-1-0.5-1.5-0.9c-0.4-0.4-0.7-0.8-1-1.3c-0.3-0.6-0.5-1.3-0.5-2c0-1.3,0.5-2.4,1.4-3.3
			c0.9-0.9,2.1-1.4,3.5-1.4c0.4,0,0.8,0,1.2,0.1c0.2,0,0.5,0.1,0.9,0.3c0.4,0.2,0.7,0.2,0.8,0.2c0.1,0,0.2,0,0.3-0.1
			c0.1-0.1,0.2-0.3,0.3-0.5H68.8L68.8,64.1z"/>
		<path class="st1" d="M73,66.9c0.5,0,1,0.1,1.5,0.4c0.5,0.3,0.8,0.7,1,1.2c0.2,0.5,0.4,1.1,0.4,1.6c0,0.9-0.2,1.6-0.7,2.2
			c-0.5,0.7-1.3,1-2.2,1c-0.9,0-1.6-0.3-2.1-1c-0.5-0.6-0.7-1.4-0.7-2.2c0-0.9,0.3-1.6,0.8-2.3C71.4,67.2,72.1,66.9,73,66.9L73,66.9
			z M73,67.3c-0.2,0-0.4,0.1-0.6,0.3c-0.2,0.2-0.3,0.5-0.3,1c0,0.5-0.1,1.2-0.1,2c0,0.5,0,0.9,0.1,1.3c0,0.3,0.1,0.5,0.3,0.7
			c0.2,0.2,0.3,0.2,0.5,0.2c0.2,0,0.4-0.1,0.5-0.2c0.2-0.1,0.3-0.4,0.3-0.6c0.1-0.4,0.1-1.2,0.1-2.5c0-0.7,0-1.2-0.1-1.5
			c-0.1-0.3-0.2-0.5-0.4-0.6C73.3,67.4,73.2,67.3,73,67.3L73,67.3z"/>
		<path d="M78.7,73.3l-2-4.7c-0.2-0.6-0.4-0.9-0.6-1.1c-0.1-0.1-0.2-0.2-0.4-0.2V67h3.2v0.2c-0.2,0-0.3,0-0.4,0.1
			c-0.1,0.1-0.2,0.2-0.2,0.3c0,0.2,0.1,0.5,0.3,0.9l1,2.3l0.8-2c0.2-0.6,0.3-1,0.3-1.2c0-0.1,0-0.2-0.1-0.3
			c-0.1-0.1-0.3-0.1-0.5-0.1V67h2v0.2c-0.2,0-0.3,0.1-0.5,0.2c-0.1,0.1-0.3,0.5-0.5,1l-2,4.8H78.7L78.7,73.3z"/>
		<path class="st1" d="M86.8,69.9h-3.3c0,0.8,0.3,1.4,0.6,1.9c0.3,0.4,0.7,0.5,1.1,0.5c0.3,0,0.5-0.1,0.7-0.2
			c0.2-0.1,0.4-0.4,0.7-0.8l0.2,0.1c-0.3,0.7-0.7,1.1-1.1,1.4c-0.4,0.3-0.9,0.4-1.4,0.4c-0.9,0-1.6-0.3-2-1
			c-0.4-0.6-0.6-1.2-0.6-2.1c0-1,0.3-1.8,0.8-2.4c0.5-0.6,1.2-0.9,1.9-0.9c0.6,0,1.1,0.3,1.6,0.8C86.5,68.1,86.8,68.9,86.8,69.9
			L86.8,69.9z M85.2,69.4c0-0.7,0-1.2-0.1-1.4c-0.1-0.3-0.2-0.5-0.4-0.6c-0.1-0.1-0.2-0.1-0.4-0.1c-0.2,0-0.4,0.1-0.6,0.3
			c-0.3,0.4-0.4,0.9-0.4,1.6v0.2H85.2L85.2,69.4z"/>
		<path d="M89.7,67v1.4c0.4-0.6,0.8-1,1.1-1.2c0.3-0.2,0.6-0.3,0.9-0.3c0.2,0,0.4,0.1,0.6,0.2c0.1,0.1,0.2,0.4,0.2,0.6
			c0,0.3-0.1,0.5-0.2,0.7c-0.1,0.2-0.3,0.2-0.5,0.2c-0.2,0-0.4-0.1-0.6-0.2c-0.2-0.1-0.3-0.2-0.3-0.2c0,0-0.1,0-0.1,0
			c-0.1,0-0.2,0-0.4,0.1c-0.2,0.1-0.3,0.4-0.4,0.6c-0.1,0.4-0.2,0.9-0.2,1.4v1.4l0,0.4c0,0.2,0,0.4,0,0.5c0.1,0.1,0.1,0.2,0.2,0.3
			c0.1,0.1,0.3,0.1,0.5,0.1v0.2h-3.3v-0.2c0.3,0,0.4-0.1,0.5-0.2c0.1-0.1,0.1-0.5,0.1-1v-3.3c0-0.3,0-0.6-0.1-0.7
			c0-0.1-0.1-0.2-0.2-0.3c-0.1-0.1-0.2-0.1-0.4-0.1V67H89.7L89.7,67z"/>
		<path d="M95.2,67v0.8c0.3-0.3,0.6-0.6,0.9-0.7c0.3-0.2,0.6-0.2,0.9-0.2c0.4,0,0.7,0.1,1,0.3c0.3,0.2,0.4,0.5,0.5,0.8
			c0.1,0.2,0.1,0.7,0.1,1.4v2.4c0,0.5,0,0.8,0.1,0.9c0.1,0.1,0.3,0.2,0.5,0.2v0.2h-3.1v-0.2c0.2,0,0.4-0.1,0.5-0.3
			c0.1-0.1,0.1-0.4,0.1-0.8v-2.7c0-0.5,0-0.8-0.1-0.9c0-0.1-0.1-0.2-0.2-0.3c-0.1-0.1-0.2-0.1-0.3-0.1c-0.4,0-0.7,0.3-1,0.8v3.2
			c0,0.5,0,0.7,0.1,0.9c0.1,0.1,0.2,0.2,0.5,0.2v0.2h-3.1v-0.2c0.3,0,0.4-0.1,0.5-0.2c0.1-0.1,0.1-0.4,0.1-0.8v-3.4
			c0-0.5,0-0.7-0.1-0.9c-0.1-0.1-0.3-0.2-0.5-0.2V67H95.2L95.2,67z"/>
		<path d="M102.3,67v0.8c0.3-0.4,0.6-0.6,0.9-0.8c0.3-0.1,0.6-0.2,0.9-0.2c0.4,0,0.7,0.1,1,0.3c0.3,0.2,0.5,0.5,0.6,0.8
			c0.3-0.4,0.7-0.7,1-0.8c0.3-0.2,0.7-0.3,1-0.3c0.4,0,0.8,0.1,1,0.3c0.3,0.2,0.4,0.4,0.5,0.7c0.1,0.3,0.1,0.8,0.1,1.4v2.5
			c0,0.5,0,0.8,0.1,0.9c0.1,0.1,0.3,0.2,0.5,0.2v0.2h-3.1v-0.2c0.2,0,0.4-0.1,0.5-0.3c0.1-0.1,0.1-0.4,0.1-0.8v-2.6
			c0-0.5,0-0.9-0.1-1c0-0.1-0.1-0.3-0.2-0.3c-0.1-0.1-0.2-0.1-0.3-0.1c-0.2,0-0.4,0.1-0.6,0.2c-0.2,0.1-0.4,0.3-0.6,0.6v3.3
			c0,0.4,0,0.7,0.1,0.8c0.1,0.2,0.3,0.2,0.6,0.3v0.2h-3.1v-0.2c0.2,0,0.3,0,0.4-0.1c0.1-0.1,0.2-0.2,0.2-0.3c0-0.1,0.1-0.3,0.1-0.7
			v-2.6c0-0.6,0-0.9-0.1-1c0-0.1-0.1-0.2-0.2-0.3c-0.1-0.1-0.2-0.1-0.3-0.1c-0.2,0-0.3,0-0.5,0.1c-0.2,0.1-0.4,0.4-0.6,0.7v3.3
			c0,0.4,0,0.7,0.1,0.8c0.1,0.1,0.3,0.2,0.5,0.2v0.2h-3.1v-0.2c0.3,0,0.4-0.1,0.5-0.2c0.1-0.1,0.1-0.4,0.1-0.8v-3.4
			c0-0.5,0-0.7-0.1-0.9c-0.1-0.1-0.3-0.2-0.5-0.2V67H102.3L102.3,67z"/>
		<path class="st1" d="M115.4,69.9h-3.3c0,0.8,0.3,1.4,0.6,1.9c0.3,0.4,0.7,0.5,1.1,0.5c0.3,0,0.5-0.1,0.7-0.2
			c0.2-0.1,0.4-0.4,0.7-0.8l0.2,0.1c-0.3,0.7-0.7,1.1-1.1,1.4c-0.4,0.3-0.9,0.4-1.4,0.4c-0.9,0-1.6-0.3-2-1
			c-0.4-0.6-0.6-1.2-0.6-2.1c0-1,0.3-1.8,0.8-2.4c0.5-0.6,1.2-0.9,1.9-0.9c0.6,0,1.1,0.3,1.6,0.8C115.1,68.1,115.4,68.9,115.4,69.9
			L115.4,69.9z M113.8,69.4c0-0.7,0-1.2-0.1-1.4c-0.1-0.3-0.2-0.5-0.4-0.6c-0.1-0.1-0.2-0.1-0.4-0.1c-0.2,0-0.4,0.1-0.6,0.3
			c-0.3,0.4-0.4,0.9-0.4,1.6v0.2H113.8L113.8,69.4z"/>
		<path d="M118.1,67v0.8c0.3-0.3,0.6-0.6,0.9-0.7c0.3-0.2,0.6-0.2,0.9-0.2c0.4,0,0.7,0.1,1,0.3c0.3,0.2,0.4,0.5,0.5,0.8
			c0.1,0.2,0.1,0.7,0.1,1.4v2.4c0,0.5,0,0.8,0.1,0.9c0.1,0.1,0.3,0.2,0.5,0.2v0.2h-3.1v-0.2c0.2,0,0.4-0.1,0.5-0.3
			c0.1-0.1,0.1-0.4,0.1-0.8v-2.7c0-0.5,0-0.8-0.1-0.9c0-0.1-0.1-0.2-0.2-0.3c-0.1-0.1-0.2-0.1-0.3-0.1c-0.4,0-0.7,0.3-1,0.8v3.2
			c0,0.5,0,0.7,0.1,0.9c0.1,0.1,0.2,0.2,0.5,0.2v0.2h-3.1v-0.2c0.3,0,0.4-0.1,0.5-0.2c0.1-0.1,0.1-0.4,0.1-0.8v-3.4
			c0-0.5,0-0.7-0.1-0.9c-0.1-0.1-0.3-0.2-0.5-0.2V67H118.1L118.1,67z"/>
		<path d="M124.8,64.8V67h1.4v0.6h-1.4v3.7c0,0.4,0,0.6,0,0.7c0,0.1,0.1,0.2,0.2,0.2c0.1,0.1,0.2,0.1,0.2,0.1c0.3,0,0.5-0.2,0.8-0.6
			l0.2,0.1c-0.3,0.8-0.9,1.2-1.7,1.2c-0.4,0-0.7-0.1-1-0.3c-0.3-0.2-0.4-0.5-0.5-0.7c0-0.1-0.1-0.5-0.1-1.2v-3.3h-0.8v-0.2
			c0.5-0.4,1-0.8,1.4-1.2c0.4-0.4,0.7-0.9,1-1.4H124.8L124.8,64.8z"/>
		<path d="M53.1,48.6c0,0.1-0.1,0.1-0.2,0.2"/>
		<path d="M54.7,36.8c0.2,0,0.3-0.1,0.3-0.3c0-0.2-0.1-0.3-0.3-0.3c-0.2,0-0.3,0.1-0.3,0.3C54.3,36.6,54.5,36.8,54.7,36.8L54.7,36.8
			z"/>
		<path d="M69.4,23.4L69.4,23.4l-11.4,0v0h0l0,9.2c0,0.9,0.4,1.7,0.9,1.9l4.4,2.6c0.1,0.1,0.2,0.2,0.4,0.2c0.1,0,0.3-0.1,0.4-0.1
			l4.5-2.7c0.5-0.2,0.9-1,0.9-1.9L69.4,23.4L69.4,23.4L69.4,23.4z M61.7,26.1h-1v-2.4h1V26.1L61.7,26.1z M61,26.9l0.1-0.1l-0.1-0.2
			l0.2,0l0.1-0.2l0.1,0.2l0.2,0l-0.1,0.2l0.1,0.1l-0.2,0v0.2L61.3,27l-0.2,0.1v-0.2L61,26.9L61,26.9z M58.2,29.8v-2.2h1.2v2.2H58.2
			L58.2,29.8z M58.4,26.6l0.2,0l0.1-0.2l0.1,0.2l0.2,0l-0.1,0.2l0.1,0.1l-0.2,0v0.2L58.7,27l-0.2,0.1v-0.2l-0.2,0l0.1-0.1L58.4,26.6
			L58.4,26.6z M59.8,28.9l0.2,0l0.1-0.2l0.1,0.2l0.2,0L60.3,29l0.1,0.1l-0.2,0v0.2l-0.2-0.1l-0.2,0.1v-0.2l-0.2,0l0.1-0.1L59.8,28.9
			L59.8,28.9z M60.6,27c0-0.1-0.1-0.1-0.1-0.1c-0.1,0-0.1,0.2-0.2,0.2c-0.1,0-0.1,0-0.1-0.1c0-0.1,0.1-0.1,0.2-0.2
			c-0.7,0-0.8,0.3-0.9,0.3c-0.2,0,0.2-0.4,0.3-0.5c-0.1,0-0.2-0.2-0.4-0.3c0.1-0.1,0.1-0.1,0.2,0c0-0.1,0.1-0.2,0.2-0.2
			c0.3,0,0.2,0.3,0.3,0.3c0.1,0,0-0.3,0.2-0.3c0.3,0,0.7,0.8,0.4,0.8C60.5,27.2,60.6,27.1,60.6,27L60.6,27z M59.7,24.6l0.1-0.1
			l-0.1-0.2l0.2,0l0.1-0.2l0.1,0.2l0.2,0l-0.1,0.2l0.1,0.1l-0.2,0v0.2l-0.2-0.1l-0.2,0.1v-0.2L59.7,24.6L59.7,24.6z M59.4,23.7v2.4
			h-1.2v-2.4H59.4L59.4,23.7z M61.7,35.9L59,34.3c-0.5-0.3-0.7-0.9-0.7-1.5v-2.6h3.5V35.9L61.7,35.9z M60.7,29.8v-2.2h1v2.2H60.7
			L60.7,29.8z M65.2,36.1L64,36.8h0c-0.1,0.1-0.2,0.1-0.3,0.1c-0.1,0-0.2,0-0.3-0.1L62,36.1v-5.9h3.2V36.1L65.2,36.1z M65.2,29.8H62
			v-6.1h3.2V29.8L65.2,29.8z M69,32.7c-0.1,0.7-0.3,1.2-0.7,1.5l-2.7,1.6v-5.8H69V32.7L69,32.7z M69,29.8h-3.5v-6.1H69V29.8L69,29.8
			z"/>
		<path d="M61.5,32.2c0,0-0.4,0.1-0.3,0.1c0-0.1,0.2-0.4,0.3-0.5c0-0.1-0.2,0-0.4,0.1c0.7-0.9,0.2-0.5-0.1-0.5
			c0.6-0.6,0.4-0.6,0-0.4c0.3-0.3,0.4-0.6,0.4-0.7c-0.3,0.4-0.6,0.4-0.6,0.7c0,0.3-0.1,0.7-0.2,0.8c-0.2,0.2,0-0.7-0.5-0.7
			c-0.1,0-0.5,0-0.6,0.2c0.1,0,0.2,0.2,0.2,0.3c0,0.1,0.1,0.3-0.1,0.3c-0.2,0-0.3-0.3-0.3-0.5c0-0.2,0-0.1,0-0.3
			c0-0.4-0.6-0.9-0.8-0.9c0,0.3,0.3,0.3,0.3,0.6c-0.1,0-0.3-0.3-0.3-0.1c0,0.2,0.2,0.2,0.2,0.3c0,0.1-0.2-0.1-0.2,0.1
			c0,0.1,0.1,0.1,0.2,0.2c-0.1,0-0.2,0-0.2,0c0,0,0,0.1,0.1,0.1c0,0-0.1,0.1-0.1,0.3c0,0.7,0.5,1.1,0.8,1.1c0.2,0,0.2-0.2,0.2-0.2
			c0,0.1,0.1-0.1,0.1,0.2c0,0.2-0.2,0.1-0.2,0.3c0,0.3,0.4,0,0.4,0.3c0,0.3,0,0.3,0,0.5c0,0.1,0.4-0.1,0.4-0.2
			c0.1,0,0.1,0.3,0.3,0.3c0.1,0,0.1-0.3,0.2-0.3c-0.1,0,0.3,0.3,0.3,0.1c0-0.3-0.1-0.2-0.1-0.4c0-0.2,0.5-0.2,0.4-0.3
			c-0.1-0.1-0.1,0-0.2-0.2c0,0-0.4-0.5,0.1-0.2C61.5,33.3,61.6,32.3,61.5,32.2L61.5,32.2z"/>
		<path d="M73.7,34.7c0.2,0,0.4-0.1,0.4-0.3c0-0.2-0.2-0.3-0.4-0.3c-0.2,0-0.4,0.1-0.4,0.3C73.4,34.5,73.5,34.7,73.7,34.7L73.7,34.7
			z"/>
		<path d="M72.2,35.6c0.2,0,0.4-0.1,0.4-0.3c0-0.2-0.2-0.3-0.4-0.3c-0.2,0-0.4,0.1-0.4,0.3C71.8,35.4,72,35.6,72.2,35.6L72.2,35.6z"
			/>
		<path d="M54.1,37.6c0.2,0,0.4-0.1,0.4-0.3c0-0.2-0.2-0.3-0.4-0.3c-0.2,0-0.4,0.1-0.4,0.3C53.8,37.5,53.9,37.6,54.1,37.6L54.1,37.6
			z"/>
		<path d="M55.3,37.8c0.2,0,0.4-0.1,0.4-0.3c0-0.2-0.2-0.3-0.4-0.3c-0.2,0-0.4,0.1-0.4,0.3C54.9,37.6,55.1,37.8,55.3,37.8L55.3,37.8
			z"/>
		<path d="M87.8,22c0.6,0.7,0.7,1.7,0.3,2.5c-0.2,0-0.2-0.3-0.2-0.5c-0.4-0.7-0.7-1.7-0.4-2.5C87.8,21.5,87.7,21.8,87.8,22L87.8,22z
			"/>
		<path d="M40.1,22.9c-0.1,0.5-0.1,1.1,0,1.6c-0.1,0.1-0.1-0.1-0.2-0.1c-0.8-0.6-0.4-1.7-0.6-2.5c0-0.1,0.1-0.1,0.2,0
			C39.9,22.1,40,22.5,40.1,22.9L40.1,22.9z"/>
		<path d="M89.6,22.9c0.1,0.2-0.1,0.4-0.3,0.5c-0.2,0-0.4-0.1-0.5-0.2c-0.1-0.2,0.1-0.4,0.2-0.5C89.2,22.7,89.4,22.8,89.6,22.9
			L89.6,22.9z"/>
		<path d="M38.9,23.8c0,0.2-0.1,0.4-0.3,0.4c-0.1,0-0.3,0-0.4-0.1c-0.1-0.1-0.1-0.3-0.1-0.4c0.1-0.1,0.2-0.2,0.4-0.2
			C38.7,23.6,38.8,23.7,38.9,23.8L38.9,23.8z"/>
		<path d="M90.3,24.2c0,0.1,0,0.2,0,0.3c-0.1,0.2-0.3,0.3-0.5,0.2c-0.1-0.1-0.2-0.2-0.2-0.3c0-0.2,0.2-0.3,0.3-0.4
			C90.1,24,90.2,24.1,90.3,24.2L90.3,24.2z"/>
		<path d="M89.2,24.2c0.2,0.1,0,0.3,0,0.4c-0.1,0.1-0.2,0.3-0.4,0.2c-0.1-0.1-0.2-0.1-0.3-0.2c0-0.2,0.1-0.4,0.3-0.5
			C89,24.1,89.1,24.1,89.2,24.2L89.2,24.2z"/>
		<path d="M87.7,24.5c0,0.2,0,0.5-0.2,0.5c-0.2,0.1-0.4-0.1-0.5-0.3c0-0.2,0.1-0.4,0.3-0.5C87.5,24.3,87.6,24.4,87.7,24.5L87.7,24.5
			z"/>
		<path d="M41.1,24.6c0.1,0.2-0.1,0.3-0.3,0.4c-0.1,0-0.3-0.1-0.4-0.2c-0.1-0.1,0-0.3,0.1-0.4C40.7,24.2,41,24.4,41.1,24.6
			L41.1,24.6z"/>
		<path d="M39.9,24.7c0,0.2-0.1,0.3-0.2,0.4c-0.2,0.1-0.3-0.1-0.4-0.2c-0.1-0.2,0-0.4,0.2-0.5C39.7,24.3,39.8,24.5,39.9,24.7
			L39.9,24.7z"/>
		<path d="M82.9,24.7c0.2,0.4,0.4,0.9,0.4,1.4c-0.1,0.4,0.1,0.9-0.2,1.1c-0.3-0.1-0.3-0.4-0.5-0.6c-0.4-0.7,0-1.5,0.1-2.2
			C82.9,24.4,82.9,24.6,82.9,24.7L82.9,24.7z"/>
		<path d="M38.9,25c0.1,0.2-0.1,0.4-0.3,0.5c-0.2,0.1-0.4-0.1-0.5-0.3c0-0.2,0.1-0.4,0.3-0.5C38.6,24.7,38.8,24.8,38.9,25L38.9,25z"
			/>
		<path d="M86.1,25.6c0.3,0.6,0.3,1.3,0.1,1.9L86,27.6c-0.3-0.5-0.7-1-0.8-1.6c0-0.4,0.1-0.8,0.2-1.1c0.1-0.1,0.2,0,0.3,0.1
			C85.8,25.2,85.9,25.4,86.1,25.6L86.1,25.6z"/>
		<path d="M88.6,25.2c0,0.2-0.1,0.4-0.3,0.5c-0.2,0-0.4,0-0.5-0.2c-0.1-0.2,0.1-0.4,0.2-0.5C88.3,24.8,88.5,25,88.6,25.2L88.6,25.2z
			"/>
		<path d="M39.9,25.8c0,0.2-0.1,0.3-0.3,0.4c-0.2,0.1-0.3-0.1-0.4-0.1c-0.1-0.2-0.1-0.3,0-0.5c0.1-0.1,0.2-0.1,0.3-0.2
			C39.7,25.5,39.9,25.6,39.9,25.8L39.9,25.8z"/>
		<path d="M40.8,25.7c0.1,0.2-0.1,0.3-0.2,0.4c-0.2,0.1-0.4-0.1-0.5-0.2c0-0.2,0.1-0.3,0.2-0.4C40.5,25.4,40.7,25.5,40.8,25.7
			L40.8,25.7z"/>
		<path d="M89.1,25.7c0,0.3-0.4,0.5-0.5,0.8c-0.2,0.5-0.7,0.9-1.2,1.1c-0.1,0.1-0.3,0.2-0.5,0.3c0-0.4,0.3-0.8,0.5-1.1
			C87.9,26.2,88.5,25.8,89.1,25.7L89.1,25.7z"/>
		<path d="M39.5,26.5c0.3,0.3,0.5,0.6,0.8,0.9c0,0.1,0,0.2-0.1,0.2c-1-0.1-1.6-1.1-2.1-1.8c0.1-0.2,0.3,0,0.5-0.1
			C38.9,26.1,39.2,26.2,39.5,26.5L39.5,26.5z"/>
		<path d="M89.4,26.8c0,0.9-0.5,1.7-1.2,2.2c-0.2,0.1-0.5,0.3-0.7,0.2c0.4-0.9,1.1-1.6,1.8-2.3H89.4L89.4,26.8z"/>
		<path d="M85.6,27.4c0.1,0.3-0.1,0.5-0.3,0.6c-0.2,0-0.4-0.2-0.5-0.3c0-0.2,0.1-0.4,0.3-0.4c0.1-0.1,0.2-0.1,0.2-0.1
			C85.4,27.2,85.5,27.3,85.6,27.4L85.6,27.4z"/>
		<path d="M38.4,27.5c0.4,0.3,0.7,0.6,1.1,0.9c-0.3,0.2-0.6,0-0.9,0c-0.7-0.2-1.1-0.8-1.8-1c0-0.2,0.3-0.1,0.4-0.2
			C37.6,27.2,38,27.4,38.4,27.5L38.4,27.5z"/>
		<path d="M59.7,21.6c-1.1-0.4-1.9,0.7-3,0.6c-0.1,0.1-0.1,0.2-0.2,0.3c-0.1,0.1-0.2,0-0.2,0c-0.1-0.5-0.2-0.9-0.3-1.4
			c-0.1-0.2-0.1-0.5-0.2-0.7c-0.6-1.7,1.6-0.4,2-1.4c0.4-0.9-0.7-1-1.1-1.6v-0.3c-0.3-0.3-0.7-0.4-0.9-0.8c0.1-0.5,0.2-1,0.1-1.5
			c0-0.1-0.1-0.3-0.3-0.2c-0.4,0.5-0.7,0.9-1,1.4c-0.4-0.3-0.7-0.6-1.2-0.9c-0.3,0-0.6-0.3-0.9-0.2c-0.1,0.1,0,0.2,0.1,0.3
			c0,0.8,0.4,1.4,1,2l0.1,0.3c-0.4,0.8-0.3,1.8-0.4,2.7c-0.9,2.3-2.4,4.5-4.3,6.1c-1.1,1.3-2.5,2.5-2.7,4.3c-0.1,0.3,0,0.6-0.2,0.8
			c-0.7-0.2-1.3-0.6-1.9-1c-0.9-0.6-2.2-0.6-2.8-1.7c-0.2-0.5,0.1-0.9,0.3-1.3c0.7-0.6,0.6-1.8,0.2-2.6c-0.1,0-0.1,0.1-0.2,0.1
			c-0.1,1.2-1,2-0.6,3.3c0.1,0.4,0.3,0.6,0.4,1c-0.1,0-0.3,0-0.5-0.1c-0.4-0.1-0.9-0.2-1.3-0.2c-0.9,0.4-2.2-0.1-2.9,0.7
			c-0.1,0-0.3,0-0.2,0.2c0.4,0,0.9,0.1,1.3,0.1c0.7,0.1,1.2-0.5,1.6-0.7h0.1c0.2-0.2,0.5-0.1,0.8-0.1c1.3,0.1,2.2,0.7,3.3,1.4v0.1
			c-0.4,0.2-0.9,0.3-1.3,0.5c-0.5,0.3-1,0.8-1.1,1.3c-0.3,0.5,0.1,0.9,0.3,1.4c0,0.2,0,0.4,0.2,0.5c0.6-0.7,0-1.5,0.1-2.3
			c0.2-0.6,0.7-0.9,1.3-1c1.1-0.5,2,0.4,2.9,1c0,0.9,0.1,1.8-0.1,2.7c-0.3,0.1-0.6,0.2-0.9,0.1c-1.6,0.1-2.8,1-4.2,1.5
			c-0.6,0.2-1.4,0.2-2,0.4c0.5,0.1,1,0,1.5-0.1c2-0.3,3.4-1.8,5.6-1.5l0,0.1c-0.2,0.5-0.6,0.9-0.9,1.3c-0.1-0.2-0.1-0.4-0.3-0.5
			c-0.2-0.1-0.3,0-0.5,0.2c-0.1,0.1-0.1,0.2,0,0.3c0.1,0.2,0.3,0.2,0.4,0.3c0,0.2-0.3,0.3-0.4,0.4c-0.6,0.9-1.7,0.6-2.4,1.2
			c-0.1,0.1-0.5,0.2-0.3,0.4c0.8,0.1,1.5-0.1,2.1-0.5c0.7-0.8,1.5-1.6,2.3-2.4c0.1,0.6-0.1,1.3-0.4,1.8c-0.2-0.1-0.3-0.2-0.5-0.3
			c-0.2,0-0.3,0.2-0.4,0.4c0.1,0.1,0.2,0.3,0.3,0.4c-0.7,0.5-1.5,0.5-2.3,0.7c-1.5,0.2-2.9,0.3-4.3,0.3c-0.7,0-1.5,0.2-2.2,0
			c-0.8,0.1-1.6-0.1-2.2,0.3c-0.1,0.1,0,0.2,0,0.3c0.9,0.6,2.2,0.1,3.2,0.3h7.9c0.6,0,1.2,0,1.6-0.3c1-0.6,1.6-1.6,2.1-2.7
			c0.2-0.4,0.3-0.8,0.4-1.2c0.2-0.7,0.8-1.2,1.5-1.2c0.1,1-0.1,2.1-0.3,3.1c-0.1,0.6-0.5,1.3-0.3,1.9c0.1,0.3,0.4,0.3,0.7,0.4
			c2.4,0,4.8-0.1,7.4,0c0.5,0.1,0.9,0.2,1.4,0.2c0-0.1,0.2-0.1,0.1-0.2c-0.1-0.2-0.2-0.5-0.5-0.6c0-0.1-0.2-0.1-0.3-0.2
			c-1.3-0.7-2.8-0.3-4.3-0.3c-0.8,0.1-1.6,0.2-2.2-0.2c-0.3-0.4-0.1-1.5-0.1-1.5c0-0.5,1.1-3.6,1.2-3.9c0-0.3,0.2-0.6,0.1-0.9
			c0.2-0.4,0.1-0.9,0.1-1.4c0.1-0.6,0.4-1.2,0.6-1.9c0.1-0.3,0.2-0.6,0.3-0.9c0.1-0.4,0.2-0.7,0.4-1c0.7,0.4,1.3,0.4,1.6,1.1
			l0.3,1.7c0,0.1,0.1,0.3,0.2,0.2c0.5-0.3,0.4-1.1,0.4-1.6c0.1-0.6-0.3-0.9-0.5-1.5c-0.1-0.1-0.4-0.6-0.4-0.6
			c-0.1-0.4-1-0.7-0.8-1.3c0.1-0.5,0.2-0.9,0.7-1.1c0.1,0,0.1,0.1,0.1,0.1l0.2-0.2l0-1.7c0.6,0,1.6,0.1,2.3,0.1
			c0.2,0.1,0.3,0.2,0.5,0.2l0.2-0.2l1.6-0.3C60.8,22.4,60.4,21.6,59.7,21.6L59.7,21.6z"/>
		<path class="st2" d="M61.5,22.3c0,0,0.1,0,0.1,0L61.5,22.3L61.5,22.3z"/>
		<path d="M44.1,27.9c0,0.2-0.1,0.4-0.3,0.5c-0.2-0.1-0.3-0.1-0.4-0.2c-0.1-0.2,0.1-0.4,0.3-0.5C43.9,27.7,44.1,27.7,44.1,27.9
			L44.1,27.9z"/>
		<path d="M42.8,27.9c0.1,0.1,0.1,0.3,0.1,0.5c-0.1,0.1-0.4,0.2-0.5,0.1c-0.1-0.1-0.2-0.3-0.1-0.4C42.4,27.9,42.7,27.7,42.8,27.9
			L42.8,27.9z"/>
		<path class="st2" d="M70.6,28.1C70.6,28.1,70.6,28.1,70.6,28.1"/>
		<path d="M85.8,28.5c0.1,0.2-0.1,0.4-0.3,0.5c-0.2-0.1-0.5-0.1-0.5-0.4c0-0.2,0.2-0.3,0.3-0.3C85.5,28.2,85.7,28.4,85.8,28.5
			L85.8,28.5z"/>
		<path d="M86.8,28.4c0.1,0.1,0.2,0.3,0,0.4c-0.1,0.1-0.1,0.1-0.2,0.2c-0.2,0-0.4,0-0.5-0.2c0-0.2,0.1-0.3,0.3-0.4
			C86.6,28.2,86.7,28.4,86.8,28.4L86.8,28.4z"/>
		<path d="M37.8,28.7c-0.1,0.2-0.3,0.3-0.5,0.3c-0.1-0.1-0.1-0.2-0.2-0.3c0-0.1,0.1-0.3,0.2-0.3C37.6,28.4,37.8,28.5,37.8,28.7
			L37.8,28.7z"/>
		<path d="M44.6,29c0,0.2-0.2,0.3-0.3,0.4c-0.2,0-0.3-0.1-0.4-0.3c0-0.2,0.1-0.4,0.2-0.4C44.2,28.6,44.5,28.8,44.6,29L44.6,29z"/>
		<path d="M43.4,28.9c0.1,0.1,0.1,0.2,0.1,0.3c-0.1,0.1-0.3,0.3-0.5,0.2c-0.1-0.1-0.3-0.2-0.2-0.4c0.1-0.1,0.2-0.2,0.3-0.2
			C43.2,28.7,43.3,28.8,43.4,28.9L43.4,28.9z"/>
		<path d="M89.9,29.1c0,0.2-0.2,0.3-0.3,0.4c-0.2,0.1-0.3,0-0.4-0.1c-0.1,0-0.1-0.2-0.1-0.3c0.1-0.1,0.2-0.2,0.4-0.3
			C89.7,28.9,89.8,29,89.9,29.1L89.9,29.1z"/>
		<path d="M91.2,29.3c-0.1,0.2-0.2,0.3-0.4,0.4c-0.1,0-0.3-0.1-0.3-0.2c0-0.1,0.1-0.3,0.2-0.3C90.9,29,91.1,29.1,91.2,29.3
			L91.2,29.3z"/>
		<path d="M40.1,29.6c0,0.2,0,0.4-0.2,0.5c-0.1,0.1-0.3,0-0.4-0.1c-0.1-0.1-0.2-0.3-0.1-0.4c0-0.2,0.2-0.1,0.3-0.2
			C39.9,29.4,40,29.4,40.1,29.6L40.1,29.6z"/>
		<path d="M41.1,29.8c0.1,0.2-0.1,0.2-0.2,0.3c-0.1,0.1-0.2,0.1-0.4,0c-0.1-0.1-0.3-0.3-0.2-0.5C40.6,29.4,41,29.5,41.1,29.8
			L41.1,29.8z"/>
		<path d="M88.7,29.7c0,0.2-0.2,0.3-0.3,0.5c-0.2,0-0.4-0.1-0.4-0.2c0-0.2,0.1-0.3,0.2-0.4C88.4,29.5,88.6,29.5,88.7,29.7L88.7,29.7
			z"/>
		<path d="M90.3,30c0,0.2,0,0.4-0.2,0.5c-0.2,0-0.4,0-0.5-0.1c-0.1-0.1-0.1-0.3-0.1-0.4c0.1-0.2,0.3-0.3,0.5-0.2
			C90.2,29.8,90.2,29.9,90.3,30L90.3,30z"/>
		<path d="M39.4,30.4c0.1,0.2-0.1,0.2-0.2,0.3c-0.1,0.1-0.3,0-0.4,0c-0.1-0.1-0.1-0.3-0.1-0.4C38.9,29.9,39.3,30.2,39.4,30.4
			L39.4,30.4z"/>
		<path d="M89.1,30.8c0.1,0,0,0.1,0,0.2c-0.5,0.2-1.2,0.3-1.6-0.1c-0.2-0.2-0.5-0.3-0.8-0.4c0.1-0.3,0.5-0.2,0.7-0.3
			C88,30.2,88.5,30.8,89.1,30.8L89.1,30.8z"/>
		<path d="M40.3,30.6c0,0.2-0.1,0.2-0.1,0.3c-0.1,0.1-0.2,0.1-0.3,0c-0.2-0.1-0.3-0.3-0.1-0.5C39.9,30.3,40.2,30.4,40.3,30.6
			L40.3,30.6z"/>
		<path d="M42.1,30.7c0.1,0.2,0,0.3-0.2,0.4c-0.1,0.1-0.3,0-0.4-0.1c-0.1-0.1-0.3-0.3-0.1-0.5C41.6,30.3,41.9,30.5,42.1,30.7
			L42.1,30.7z"/>
		<path d="M65.1,31.6c0,0.4-0.7-0.1-0.6,0.5c0.1,0.4,0.2,0.8,0.4,1.1c0.2,0.3,0.1,0.7,0.1,1c-0.2,0.3-0.5,0.5-0.8,0.6
			c-0.6-0.1-1.4,0.3-1.7-0.4c-0.1-0.3-0.3-0.6-0.3-1c0.1,0,0.1,0,0.2-0.1c0-0.1-0.2-0.2-0.1-0.3c0.6-0.1-0.3-0.7,0.3-0.7
			c0.5,0.5,1.2,0.3,1.6,0.8c0.1,0.1,0.2,0.2,0.3,0.2c-0.1-0.5-0.3-1-0.4-1.5c-0.1-0.3,0-0.5,0.2-0.7C64.6,31,64.9,31.4,65.1,31.6
			L65.1,31.6z"/>
		<path d="M43.8,31.4c0.1,0.2-0.1,0.3-0.2,0.4c-0.2,0.1-0.3-0.1-0.4-0.2c-0.1-0.2,0.1-0.3,0.2-0.4C43.6,31.2,43.7,31.3,43.8,31.4
			L43.8,31.4z"/>
		<path d="M56.1,31.6c0.2,0.8,0.2,1.6-0.2,2.2c0,0.2,0,0.4-0.2,0.4c-0.5-0.7-0.1-1.8,0.1-2.6C55.8,31.5,56.1,31.4,56.1,31.6
			L56.1,31.6z"/>
		<path d="M73.2,32c0.3,0.6,0.3,1.3,0,1.9l-0.2,0.2c-0.2-0.5-0.4-0.9-0.5-1.4c0.1-0.4,0.2-0.7,0.2-1.1C73.1,31.5,73.1,31.9,73.2,32
			L73.2,32z"/>
		<path d="M45.4,32.2c-0.1,0.2-0.5,0.3-0.7,0.5c-0.5,0.4-1.2,0.4-1.8,0.3c0.5-0.7,1.3-1.1,2.3-0.9C45.2,32.2,45.3,32.1,45.4,32.2
			L45.4,32.2z"/>
		<path d="M37.2,33c0.7,0.5,0.9,1.2,1.4,2c0.1,0.1,0.3,0.1,0.2,0.3c-0.2,0.1-0.3-0.1-0.5-0.1C37.4,34.8,37,33.9,37,33
			C37,33,37.1,33,37.2,33L37.2,33z"/>
		<path d="M72.4,33.6c0,0.2,0,0.4-0.2,0.5c-0.2,0.1-0.4-0.1-0.5-0.2c-0.1-0.1,0.1-0.2,0.1-0.3C72,33.3,72.3,33.4,72.4,33.6
			L72.4,33.6z"/>
		<path d="M80.8,34.7c0-0.4,0.1-0.7,0.1-1.1c0.1-0.1,0.1-0.3,0.1-0.4c0.5-0.6,1.5-0.4,2.2-0.4c0.3,0.2,0.7,0.1,1,0.2
			c0.1-0.1,0.3-0.1,0.5-0.1c0.6-0.3,0.2-1.1,0.3-1.7l-0.2-0.6c-0.1-0.1-0.1-0.3-0.2-0.4c-0.1-0.1-0.2-0.4-0.3-0.5
			c-0.3-0.9-1-1.4-1.6-2.1c-1-1.3-2.6-2.1-4.2-2.6c-1.6-0.5-3.2,0.2-4.6,0.7c-0.4-0.1-0.7-0.5-0.8-0.8c-0.1-0.8,0.1-1.5,0.4-2.1
			c0.1-0.5,0.4-0.9,0.5-1.3c0.4-1.1,0.7-2.2,0.8-3.5c0-0.7-0.5-1.3-1.1-1.6c-0.4-0.1-0.8-0.1-1.1,0.2c-0.3,0.5-0.8,0.9-1.3,1.2
			c0,0.3,0.4,0.1,0.5,0.2c0.4,0.1,0.9-0.1,1.3,0.2c0,0.8-0.4,1.5-0.8,2.1c-0.7,1-1.4,2-1.8,3.1l-0.1-0.1l0.1,4.9
			c0.6,1.1,1.4,2.3,2.6,2.7c0.6,0.5,1.4,1.1,2.3,0.7c0.5-0.1,0.5,0.5,0.7,0.8c0.2,0.7-0.3,1.3-0.3,1.9l-0.5,1.1
			c-0.6,1.2-1.1,2.4-2.1,3.4c-0.3,0-0.5,0.3-0.8,0.3c-0.2,0.2-0.5,0.1-0.7,0.1c-0.6,0.3-1.5,0.1-1.9,0.7c0,0.1,0.1,0.1,0.2,0.1
			c1.2,0,2.6,0.1,3.9,0c0.2-0.1,0.3-0.2,0.3-0.4c-0.2-0.3,0.1-0.6,0.2-0.9c0.1-0.5,0.4-0.8,0.6-1.2c0.4-0.8,0.9-1.6,1.4-2.4l0.6-1
			c0.1-0.3,0.4-0.8,0.6-1.1c0.2-0.2,0.2-0.3,0.4-0.5c0-0.2-0.1-0.3-0.2-0.4c0.1-0.1,0.4-0.1,0.5-0.1c0.5,0.3,1,0.8,1.1,1.3l0.2,0.5
			l0.1,0.2l0,0.7l0.1,0.6c0.1,1-0.1,1.9-0.2,2.9c-0.3,1.2-1.7,1-2.6,1.3c-0.2,0.2-0.7,0.1-0.7,0.5c1.2,0.2,2.5,0.1,3.7,0.1
			c0.2-0.1,0.2-0.3,0.3-0.4c0-0.3,0.3-0.5,0.2-0.8c-0.2-0.3,0-0.7-0.1-1.1c0-0.1,0-0.2,0-0.4c0.2-0.6,0.1-1.3,0.2-1.8L80.8,34.7
			L80.8,34.7z"/>
		<path d="M90.6,33.9c-0.6,0.9-1.3,1.9-2.4,2.2c-0.1,0-0.2,0-0.2-0.1c0.7-0.7,1-1.8,2.1-2.1C90.2,33.9,90.5,33.8,90.6,33.9
			L90.6,33.9z"/>
		<path d="M36.2,34.9c-0.1,0.1,0,0.3-0.2,0.3c-0.2,0.1-0.3,0-0.4-0.2c-0.1-0.2,0.1-0.4,0.3-0.4C36,34.6,36.2,34.7,36.2,34.9
			L36.2,34.9z"/>
		<path d="M41.9,35.1c0.1,0.2-0.1,0.2-0.2,0.2c-0.8,0.3-1.7,0-2.3-0.6c0-0.1,0-0.2,0.1-0.2C40.3,34.8,41.3,34.6,41.9,35.1L41.9,35.1
			z"/>
		<path d="M37.3,34.9c0,0.1,0.1,0.2,0,0.3c-0.1,0.2-0.3,0.2-0.5,0.2c-0.1-0.1-0.2-0.1-0.3-0.3c0-0.2,0.2-0.3,0.3-0.4
			C37.1,34.7,37.2,34.8,37.3,34.9L37.3,34.9z"/>
		<path d="M56,35c0,0.2-0.1,0.3-0.2,0.4c-0.2,0-0.3,0-0.4-0.2c-0.1-0.1,0-0.3,0.1-0.4C55.6,34.8,55.9,34.8,56,35L56,35z"/>
		<path d="M91.4,35.1c0.1,0.2-0.1,0.3-0.3,0.4c-0.1,0.1-0.3,0-0.4-0.1c0-0.1-0.1-0.2-0.1-0.3c0.1-0.2,0.3-0.3,0.5-0.2
			C91.2,34.9,91.3,35,91.4,35.1L91.4,35.1z"/>
		<path d="M92.7,35c0.1,0.2,0,0.3-0.1,0.5c-0.1,0.1-0.2,0.2-0.4,0.1c-0.1-0.1-0.3-0.2-0.3-0.4c0-0.2,0.2-0.3,0.3-0.3
			C92.5,34.8,92.5,35,92.7,35L92.7,35z"/>
		<path d="M35.4,35.6c0,0.1-0.1,0.2-0.1,0.3c-0.1,0-0.2,0.1-0.3,0.1c-0.1-0.1-0.2-0.2-0.3-0.3c0-0.2,0.2-0.3,0.4-0.4
			C35.1,35.3,35.3,35.4,35.4,35.6L35.4,35.6z"/>
		<path d="M77.4,35.6c0,0.1,0,0.2,0,0.3c-0.1,0.2-0.3,0.3-0.5,0.2c-0.1-0.1-0.3-0.2-0.2-0.4C76.9,35.4,77.2,35.3,77.4,35.6
			L77.4,35.6z"/>
		<path d="M38.6,35.9c0,0.1-0.1,0.3-0.3,0.3c-0.2,0-0.2-0.1-0.3-0.2c0-0.2,0-0.4,0.2-0.5C38.4,35.4,38.6,35.6,38.6,35.9L38.6,35.9z"
			/>
		<path d="M36.7,35.9c0.1,0.2-0.1,0.3-0.2,0.4c-0.2,0.1-0.4-0.1-0.5-0.3c0-0.2,0.2-0.4,0.4-0.5C36.5,35.6,36.6,35.8,36.7,35.9
			L36.7,35.9z"/>
		<path d="M78.7,35.9c0,0.2,0,0.4-0.2,0.5c-0.2,0.1-0.4-0.1-0.5-0.3c0.1-0.2,0.1-0.4,0.4-0.4C78.5,35.6,78.6,35.7,78.7,35.9
			L78.7,35.9z"/>
		<path d="M37.6,35.9c0.1,0.1-0.1,0.2-0.1,0.3c-0.1,0-0.2,0.1-0.3,0.1C37.1,36.2,37,36.2,37,36c0-0.2,0.1-0.3,0.3-0.4
			C37.4,35.6,37.5,35.8,37.6,35.9L37.6,35.9z"/>
		<path d="M90.3,36.1c-0.1,0.2-0.2,0.2-0.3,0.3c-0.2,0-0.3-0.1-0.4-0.2c-0.1-0.1-0.1-0.3,0-0.4C89.8,35.6,90.3,35.7,90.3,36.1
			L90.3,36.1z"/>
		<path d="M91.8,36.2c-0.1,0.2-0.3,0.3-0.5,0.3c-0.2-0.1-0.4-0.2-0.2-0.5c0.1-0.1,0.1-0.2,0.2-0.2C91.6,35.8,91.7,36,91.8,36.2
			L91.8,36.2z"/>
		<path d="M82.3,36.3c0.1,0.3-0.1,0.3-0.3,0.5c-0.1,0-0.3-0.1-0.4-0.2c0-0.2,0.1-0.4,0.3-0.5C82.1,36.1,82.2,36.2,82.3,36.3
			L82.3,36.3z"/>
		<path d="M76.9,36.6c0.1,0,0.1,0.2,0,0.2c-0.1,0.1-0.3,0.3-0.5,0.2c-0.1-0.1-0.2-0.2-0.2-0.4C76.3,36.4,76.8,36.3,76.9,36.6
			L76.9,36.6z"/>
		<path d="M78,36.7c0,0.2,0,0.2-0.2,0.3c-0.1,0.1-0.3,0-0.4-0.1c0-0.1-0.1-0.2,0-0.3c0.1-0.1,0.2-0.1,0.3-0.2
			C77.8,36.5,77.9,36.5,78,36.7L78,36.7z"/>
		<path d="M44.1,36.7c0.1,0.1,0,0.3,0,0.4c-0.1,0.1-0.3,0.2-0.5,0.1c-0.2-0.1-0.2-0.3-0.1-0.5c0.1,0,0.1-0.2,0.3-0.2
			C43.9,36.5,44,36.6,44.1,36.7L44.1,36.7z"/>
		<path d="M84.5,36.8c0,0.2-0.2,0.3-0.3,0.3c-0.2,0.1-0.4-0.1-0.5-0.3c0-0.1,0.1-0.2,0.2-0.3C84.2,36.4,84.3,36.6,84.5,36.8
			L84.5,36.8z"/>
		<path d="M83.4,36.8c0.1,0.2-0.1,0.3-0.2,0.4c-0.1,0.1-0.3,0-0.4-0.1c-0.1-0.1-0.1-0.2-0.1-0.3c0.1-0.1,0.2-0.2,0.3-0.3
			C83.1,36.6,83.3,36.7,83.4,36.8L83.4,36.8z"/>
		<path d="M92.4,37c0,0.3-0.3,0.1-0.5,0.2c-0.8,0.5-1.9,0.1-2.7-0.2c0.1-0.3,0.4-0.2,0.5-0.3C90.6,36.3,91.5,36.9,92.4,37L92.4,37
			L92.4,37z"/>
		<path d="M37.8,36.8l-0.1,0.1c-0.7,0.4-1.7,0.7-2.6,0.5l-0.1-0.1C35.8,36.7,36.8,36.6,37.8,36.8L37.8,36.8L37.8,36.8z"/>
		<path d="M86.5,36.9c0,0.2-0.1,0.3-0.2,0.4c-0.2,0.1-0.5,0-0.5-0.2c-0.1-0.2,0.1-0.3,0.3-0.4C86.2,36.7,86.4,36.7,86.5,36.9
			L86.5,36.9z"/>
		<path d="M41.4,37c-0.1,0.2,0,0.3-0.2,0.4c-0.2,0.1-0.4-0.1-0.5-0.3c-0.1-0.2,0.1-0.3,0.2-0.4C41.1,36.7,41.3,36.8,41.4,37L41.4,37
			z"/>
		<path d="M40,37.1c0.1,0.1-0.1,0.2-0.1,0.3c-0.1,0.1-0.3,0.1-0.4,0.1c-0.1-0.1-0.3-0.3-0.2-0.5c0.1-0.1,0.2-0.2,0.3-0.2
			C39.8,36.8,39.9,36.9,40,37.1L40,37.1z"/>
		<path d="M87.9,37.6c0,0.2-0.2,0.3-0.3,0.4c-0.2,0-0.3-0.1-0.4-0.2c-0.1-0.1,0-0.3,0.1-0.4c0-0.1,0.2-0.1,0.3-0.1
			C87.7,37.3,87.9,37.4,87.9,37.6L87.9,37.6z"/>
		<path d="M38.5,37.4c0.1,0.2-0.1,0.2-0.1,0.3c-0.1,0.3-0.3,0.6-0.4,0.9C37.6,39,37,39,36.5,39.2L36.4,39
			C37,38.3,37.6,37.7,38.5,37.4L38.5,37.4L38.5,37.4z"/>
		<path d="M86.9,37.8c0,0.2-0.2,0.3-0.3,0.4c-0.2,0-0.3-0.1-0.4-0.2c-0.1-0.2,0.1-0.3,0.3-0.4C86.7,37.5,86.8,37.6,86.9,37.8
			L86.9,37.8z"/>
		<path d="M40.8,37.8c0,0,0,0.1,0.1,0.1c0,0.2-0.2,0.3-0.3,0.4c-0.2,0-0.3-0.1-0.4-0.2c-0.1-0.2,0-0.4,0.2-0.5
			C40.5,37.6,40.7,37.6,40.8,37.8L40.8,37.8z"/>
		<path d="M90.6,38.4c0.2,0,0.2-0.3,0.5-0.3c0.2,0,0.4,0.1,0.5,0.2c0.1,0.2-0.1,0.4-0.3,0.5c-0.1,0.1-0.4-0.1-0.4,0.1
			c0.1,0.1,0.3,0.2,0.3,0.4c0,0.1-0.2,0.1-0.2,0c-0.6-0.2-1.2-0.6-1.4-1.2c-0.1-0.2-0.5-0.3-0.2-0.5C89.8,37.6,90.2,38,90.6,38.4
			L90.6,38.4z"/>
		<path d="M92.5,37.8c0.1,0.1,0.1,0.3,0,0.4c-0.1,0.2-0.4,0.1-0.6,0.1c-0.1-0.1-0.2-0.2-0.2-0.4c0.1-0.1,0.2-0.2,0.3-0.3
			C92.2,37.6,92.3,37.7,92.5,37.8L92.5,37.8z"/>
		<path d="M85.2,38.9c0.2,0.2,0.4,0.6,0.4,0.8c0,0.1-0.1,0-0.2,0c-0.7-0.4-1.6-0.8-1.8-1.6c-0.1-0.1-0.2-0.2-0.2-0.3
			c0.5-0.1,1,0.3,1.4,0.6C85,38.5,85.2,38.7,85.2,38.9L85.2,38.9z"/>
		<path d="M39.7,38.1c0.1,0.2-0.1,0.3-0.2,0.4c-0.2,0-0.3,0-0.5-0.2c-0.1-0.2,0.1-0.4,0.3-0.5C39.5,37.8,39.6,38,39.7,38.1
			L39.7,38.1z"/>
		<path d="M87.7,38.6c0,0.1-0.1,0.2-0.2,0.3c-0.2,0-0.3,0.1-0.5-0.1c0-0.1-0.1-0.3,0-0.4C87.3,38.1,87.6,38.4,87.7,38.6L87.7,38.6z"
			/>
		<path d="M92.7,38.9c0.1,0.2-0.1,0.4-0.3,0.5c-0.2,0.1-0.4-0.1-0.5-0.2c-0.1-0.1,0-0.2,0-0.4c0.1-0.1,0.3-0.2,0.5-0.1
			C92.5,38.7,92.6,38.8,92.7,38.9L92.7,38.9z"/>
		<path d="M78.9,41.6c0,0.2-0.4,0.2-0.6,0.4c-0.6,0.3-1.4,0.3-2.1,0.3v-0.1C76.9,41.6,77.9,41.3,78.9,41.6L78.9,41.6z"/>
		<path d="M49.8,42.5c0,0.2-0.1,0.3-0.3,0.3c-0.1,0-0.3-0.1-0.3-0.2c-0.1-0.2,0.1-0.3,0.3-0.4C49.6,42.2,49.8,42.3,49.8,42.5
			L49.8,42.5z"/>
		<path d="M78.6,42.7c0,0.2-0.1,0.4-0.3,0.5c-0.2,0-0.3-0.1-0.4-0.1c-0.1-0.1,0-0.2-0.1-0.3C77.9,42.3,78.4,42.3,78.6,42.7
			L78.6,42.7z"/>
		<path d="M82.5,42.8c-0.5,0.3-1.1,0.7-1.7,0.7l-1.1,0l-0.1-0.1c0.7-0.8,1.9-0.8,2.9-0.7V42.8L82.5,42.8z"/>
		<path d="M44.4,43.3c0,0.2-0.1,0.3-0.3,0.4c-0.2,0-0.3,0-0.4-0.2c-0.1-0.2,0-0.4,0.2-0.5C44.1,42.9,44.3,43.1,44.4,43.3L44.4,43.3z
			"/>
		<path d="M45.4,43.5c0.1,0.1,0,0.2-0.1,0.3c-0.1,0.1-0.3,0.1-0.4,0c-0.1-0.1-0.2-0.2-0.1-0.3c0.1-0.1,0.2-0.1,0.2-0.2
			C45.2,43.3,45.3,43.3,45.4,43.5L45.4,43.5z"/>
		<path d="M37.7,45.5c-0.2,0.2-0.5-0.1-0.7-0.2c-0.7-0.4-0.7-1.2-1.4-1.6c0.1-0.2,0.3,0,0.4,0c0.1,0.1,0.3,0.2,0.4,0.2
			C37.1,44.3,37.3,44.9,37.7,45.5L37.7,45.5z"/>
		<path d="M95.8,37.7c-0.3-0.6-0.9-0.8-1.5-0.8c-0.5,0-0.9,0.4-1.1,0.8c-0.1,0.4,0,0.8,0.4,1.1c0.1,0.1,0.3,0,0.4-0.1
			c0.1-0.3-0.2-0.3-0.2-0.5c-0.1-0.3,0-0.5,0.2-0.7c0.2-0.2,0.5-0.1,0.8-0.1c0.2,0.2,0.5,0.3,0.6,0.6c0.1,0.3,0.1,0.7,0,1.1
			c-0.2,0.5-0.7,0.9-1.2,1c-1.7,0.2-19.8,0.2-19.8,0.2c-2.1,0.2-4.6-0.4-6.4,0.7c-0.8,0.4-1.3,1.3-1.5,2.1c-0.5,0.5-1.1,1-1.6,1.6
			l-0.1-0.1c0.1-0.5,0.3-0.9,0.4-1.4c0.3-0.4,0.3-0.9,0.5-1.4c0.8-1.2,1.5-2.5,2.7-3.3c0.5-0.7,1.4-0.5,2.1-0.5
			c0.8,0.4,1.8,0.5,2.8,0.4c0,0,0.1-0.1,0.1-0.1c-0.3-0.3-0.7-0.4-1.1-0.6c-0.8-0.4-1.6,0.1-2.4,0.1c0,0-0.1-0.1-0.1-0.1
			c0.8-0.6,1.6-1,2.5-1.3c0.7-0.4,1.4-0.6,2.2-0.9c0.3,0,0.6-0.3,0.9-0.1l1.1-0.3c0,0,0.1,0.1,0.2,0.1c0.9-0.3,2,0,3,0l0.1,0.1
			l1,0.2c0.4,0,0.5,0.5,0.9,0.5c0.2-0.3-0.2-0.4-0.3-0.6c0.4-0.1,0.9,0,1.3,0.2l-0.2,0.2c-0.1,0.2,0.1,0.4,0.2,0.5
			c0.1,0,0.2-0.1,0.3-0.1c0.3-0.2,0-0.4,0.1-0.5c1.5,0.3,2.9,0.6,4.2,1.2c0.4,0.1,0.7,0.4,1.2,0.4c-0.4-0.4-1-0.6-1.5-0.8
			c-0.3-0.2-0.8-0.2-1.1-0.5c0.1-0.1,0.2-0.1,0.3-0.1c0.7-0.1,1.3-0.6,1.7-1.1c0-0.1,0.3-0.1,0.2-0.2c-0.2-0.2-0.5,0.1-0.7,0
			c-0.8,0.2-1.2,1.1-2,1.3c-1-0.2-2.1-0.5-3.1-0.7c-0.5-0.1-1-0.1-1.5-0.3l-1.1-0.1h-2c0,0-0.1-0.1-0.1-0.1c0.7-0.2,1.3-0.6,2.1-0.8
			l5.3-2.4c0.6-0.5,1.1-1.1,1.5-1.6c0-0.2-0.1-0.3-0.2-0.4c-0.1-0.1-0.3,0-0.4,0.1c-0.2,0.2,0,0.4,0,0.6c-0.2,0.3-0.6,0.6-0.9,0.8
			c-0.1,0-5.5,2.5-5.5,2.5c-0.8,0.3-1.6,0.7-2.4,0.9l-1.2,0.2c-0.1,0.2-0.3,0.4-0.5,0.5c-0.3,0.1-0.6,0.3-0.9,0.3
			c-2.6,1-5.3,2.1-7.3,4.1c0.1-0.2,0.2-0.5,0.2-0.8c0-0.3,0-0.6-0.2-0.9c0-0.1-0.2-0.4-0.1-0.5L66.7,37c-0.2,0.4-0.3,1.2-0.2,1.7
			c0.1,0.4,0.4,0.8,0.1,1.1c-1,1.2-1.5,2.6-2.1,3.9c-0.2,0-0.4-0.3-0.5-0.5c0.7-0.9,1.2-1.8,1.4-2.9c0.1-0.1,0-0.4,0.2-0.5
			c0-0.3,0.2-0.6,0-0.9c0.1-0.4-0.6-0.8-0.1-1.1l-0.4,0.2c-0.9,1.1,0.4,2.8-0.5,3.9v0.1c-0.3,0.4-0.4,0.7-0.8,1
			c-0.5-0.2-0.7-0.7-0.9-1.1c-0.4-0.4-0.4-1.3-0.2-1.9c0.2-0.6-0.1-1.1-0.2-1.6l-0.2-0.1c-0.5,0.6-0.7,1.6-0.3,2.3
			c0.2,0.4,0.2,0.9,0.5,1.2c0.2,0.6,0.5,1,0.9,1.5c0.1,0.2-0.1,0.2-0.2,0.3C63,43.3,63,43,62.8,42.9c-0.7-1.4-1.5-2.5-2.6-3.7
			c0-0.2-0.2-0.3-0.1-0.5c0.4-0.4,0.5-1.1,0.3-1.5c0-0.1-0.2-0.2-0.1-0.3l-0.3-0.2c0,0.7-0.4,1.3-0.2,2.1v0c-2.1-1.5-4.3-2.9-6.6-4
			l-0.2,0.5c0.6,0.1,2.1,1.1,2.1,1.1c0.7,0.3,1.3,0.7,2,1.1c2.7,1.5,4.5,4,5.7,6.8c0,0.2,0.2,0.5,0.1,0.7c-0.4-0.6-1-1-1.5-1.5
			c-0.1-0.9-0.7-1.8-1.5-2.2c-0.3-0.4-0.9-0.5-1.4-0.6l-7.3,0c-5.9-0.1-11.3,0.2-17.1,0.1c-0.8-0.1-1.8-0.4-2.1-1.2
			c-0.2-0.3-0.2-0.8,0-1.1c0.2-0.4,0.6-0.5,1-0.5c0.3,0,0.5,0.3,0.7,0.6c0,0.3-0.2,0.5-0.3,0.7c0,0.1,0.1,0.2,0.2,0.2
			c0.3-0.1,0.5-0.4,0.5-0.6c0-0.1,0.1-0.3-0.1-0.4c-0.1-0.4-0.6-0.7-0.9-0.8c-0.5,0-1,0.1-1.4,0.5c-0.5,0.4-0.5,1.1-0.3,1.7
			c0.3,0.9,1.3,1.5,2.2,1.6L52.9,41c1.9,0.1,4-0.2,5.9,0.2c0.7,0.2,1.4,0.7,1.6,1.5c0,0-0.1,0-0.1,0c-1.6-1-3.6-1.4-5.7-1.2
			c-0.8,0-1.5,0.3-2.2,0.5c-0.4,0.1-0.7-0.1-1-0.3c-0.7-0.6-2-0.6-2.9-0.4c0,0.1,0,0.1,0,0.1c1-0.1,1.6,0.8,2.4,0.9
			c0.2,0,0.4-0.2,0.5,0c-0.9,0.4-1.8,1-2.8,1.2c-0.3-0.1-0.5-0.3-0.7-0.5c-0.4-0.4-1.1-0.2-1.6-0.3c-0.2,0-0.3-0.1-0.5,0
			c0.2,0.3,0.5,0.5,0.9,0.7c0.5,0.2,1.1,0,1.5,0.3c-0.1,0.1-0.3,0.2-0.4,0.3c-0.9,0.4-1.7,1.2-2.8,1.1c-1.1,0.1-2.2-0.2-3-1
			c-0.3-0.8-1.1-1.2-2-1.2c-0.1,0-0.1,0-0.1,0.1c0.4,0.3,0.8,0.8,1.2,1.1c0.3,0.3,0.8,0,1.1,0.4c0.4,0.3,0.9,0.5,1.3,0.6
			c0.3,0.1,0.7,0.2,1,0.3l-0.1,0.1c-1.8,0.6-3.9,0.7-5.9,0.6c-0.6,0-1.2-0.2-1.8-0.2c0.1,0.1,0.3,0.2,0.5,0.3
			c-0.2,0.1-0.3,0.1-0.5,0.2c-0.2,0.1-0.5,0.1-0.8,0.2c-0.3,0-0.6,0.1-0.9,0.2c-0.3,0.4-0.7,0.7-1.1,0.9c0,0.1,0,0.2,0.1,0.2
			c0.4-0.2,0.9,0,1.2-0.2c0.7-0.1,1-0.8,1.6-1.1c0.6-0.4,1.4-0.3,2-0.2c0.4,0.1,0,0.3,0.1,0.5c0.2,0.1,0.3,0.3,0.5,0.2
			c0,0,0.1-0.1,0.1-0.1c0.1-0.2,0.1-0.3,0-0.5c0.3-0.2,0.7,0,1-0.1c0.8,0,1.5-0.2,2.3-0.2c0.1,0,0.3-0.1,0.4,0
			c-0.1,0.2-0.3,0.2-0.2,0.4c0,0.2,0.2,0.3,0.4,0.3c0.2-0.1,0.4-0.2,0.3-0.5c0-0.1-0.2-0.2-0.3-0.2c0.4-0.2,0.9-0.3,1.3-0.5
			c0.3-0.1,0.6-0.2,0.8-0.3c0.3,0,0.5-0.3,0.7-0.2c-0.1,0.3-0.2,0.7-0.4,1c-0.3,1.1-0.6,2.5,0,3.5c0.1,0,0.1,0,0.1,0
			c-0.4-1.1-0.2-2.3,0.2-3.3c0.3-1.7,2-2.2,3.3-2.9l0.1,0.1c-0.3,0.9-0.8,1.7-0.8,2.8c0,0.2-0.1,0.4,0,0.5c0.3-0.2,0.6-0.6,0.7-0.9
			c0.1-0.9-0.4-2,0.5-2.7c1.6-0.6,3.2-1.5,5.1-1.5c0.1,0.1,0.2,0,0.2,0.1c-0.4,0.4-1,0.9-1.2,1.4c-0.6,0.9-0.6,2.4-0.3,3.5
			c0.2,0.6-0.4,1-0.6,1.4c-0.1,0.2-0.2,0.5-0.3,0.7l0.4,0c0.3-0.4,0.7-0.8,0.7-1.3c0,0.2,0.2,0.4,0.4,0.4c0.1-0.2-0.1-0.4-0.1-0.6
			c0.3-0.2,0.5,0.2,0.7,0.3c0.4,0.1,0.8,0.3,1.2,0.3l0.1-0.1c-0.4-0.7-1.3-0.8-2.1-0.8c-0.4-0.7-0.4-1.5-0.4-2.3
			c0.1-0.4,0.2-0.9,0.4-1.2c0.1-0.3,0.4-0.5,0.6-0.8c0.4-0.3,0.8-0.6,1.3-0.7h0.1c0,0,0,0.1,0,0.1c-0.5,0.4-0.6,1-0.9,1.5
			c-0.3,0.5-0.5,1.2-0.2,1.7c0.1,0.3,0.1,0.7,0.3,0.8c0.3-0.4,0.3-0.8,0.4-1.2C56,44.3,55.6,43.6,56,43c0.2-0.5,0.6-0.7,1.1-0.9
			c1.1-0.1,2.1,0.5,3,0.9c0.2,0.1,0.5,0.3,0.6,0.5c0,0.5-0.3,1.1-0.7,1.3c-0.5,0.3-1.3,0.4-1.8,0c-0.3-0.3-0.4-0.8-0.3-1.2
			c0.2-0.2,0.5-0.4,0.9-0.3c0.2,0.1,0.4,0.3,0.6,0.2c0.1-0.1,0.1-0.2,0.1-0.3c-0.2-0.1-0.3-0.4-0.6-0.5c-0.4-0.1-0.8,0-1.1,0.2
			c-0.4,0.4-0.6,0.9-0.5,1.4c0.1,0.6,0.6,1.1,1.2,1.3c0.9,0.2,1.9-0.1,2.5-0.8c0.2-0.3,0.3-0.5,0.4-0.9c1,0.6,1.7,1.6,2.1,2.7
			c0,0.3,0.1,0.7,0,1l0.7,0.1c-0.1-0.2,0-0.3,0.1-0.5c0.3-1.3,1.1-2.4,2.1-3.3c0.3-0.2,0.3,0.3,0.3,0.4c0.3,0.8,1,1.3,1.7,1.5
			c0.8,0.1,1.6-0.1,2.2-0.7c0.3-0.5,0.6-1.2,0.1-1.7c-0.3-0.3-0.7-0.5-1.1-0.5c-0.5,0-0.8,0.4-1.1,0.7c0,0.2,0,0.3,0.1,0.4
			c0.1,0,0.2,0,0.3-0.1c0-0.3,0.3-0.4,0.5-0.6c0.2-0.1,0.5,0,0.6,0.1c0.2,0.2,0.3,0.5,0.3,0.8c0,0.4-0.3,0.8-0.7,0.9
			c-0.6,0.3-1.4,0.2-1.9-0.2c-0.2-0.3-0.4-0.6-0.6-0.9c0-0.3-0.2-0.6,0-0.9c0.9-0.5,1.8-0.9,2.9-1c0.4,0.1,0.8,0.4,1.1,0.7
			c0.9,0.9-0.2,2.3,0.4,3.3c0.2,0,0.2-0.4,0.3-0.6c0.3-0.7-0.1-1.5-0.3-2.2c-0.2-0.4-0.4-0.8-0.8-1.2c0.1,0,0.1,0,0.2,0
			c0.4,0.3,0.9,0.6,1.2,1c0.6,0.9,0.9,2.1,0.8,3.3c-0.2,0.6-0.8,0.9-1.3,1.1c-0.2,0.2-0.4,0.4-0.5,0.6c0.2,0.1,0.6,0,0.8-0.1
			c0.4-0.1,0.6-0.6,0.9-0.8c0,0,0,0.1,0,0.1c0,0.2-0.1,0.5,0.1,0.6c0.1-0.3,0.1-0.7,0.2-1c0.3,0.3,0.3,0.6,0.4,1
			c0.2,0.4,0.5,0.8,1,0.9c0.1-0.2,0-0.4-0.1-0.5c-0.1-0.5-0.5-0.8-0.8-1.1c-0.7-1-0.4-2.5-0.9-3.6c-0.2-0.6-0.6-1-1.1-1.5l0.1-0.1
			c1,0,1.8,0.3,2.7,0.5c1.1,0.5,2.7,0.4,3.2,1.8c0.2,0.8,0.6,1.5,1.1,2.2l0.1,0c0.1-0.2,0.1-0.5,0-0.7c-0.1-1-1-1.2-1.5-2.1l0.1-0.1
			c0.5,0.1,1,0.3,1.5,0.5c1.6,0.4,2.7,2,2.9,3.6c0,1.3-0.2,2.3-0.7,3.4c-0.1,0.2-0.3,0.3-0.2,0.5c0.2-0.2,0.3-0.4,0.4-0.6
			c0.7-1.1,1-2.6,0.7-4c0-0.3-0.3-0.5-0.2-0.7c0.1,0.1,0.2,0.1,0.3,0.2c0.1-0.1,0.3-0.1,0.4-0.2c0-0.1,0.1-0.3,0-0.4
			c-0.1-0.2-0.4-0.2-0.6-0.1c-0.1,0.1-0.2,0.3-0.2,0.4c-0.2-0.3-0.4-0.8-0.7-1.1l0-0.1c0.9,0.3,1.7,0.7,2.6,1
			c0.2,0.1,0.4,0.2,0.7,0.2c0.8,0.3,1.6,0.4,2.5,0.6c0.6-0.1,1.1,0.2,1.7,0.1v0l0,0c-0.2-0.3-0.7,0-1-0.2c-1.4-0.1-2.7-0.5-3.9-1
			c0-0.1,0.1,0,0.2,0c0.2-0.1,0.3-0.3,0.3-0.5c-0.1-0.1-0.3-0.2-0.5-0.2c-0.1,0.1-0.3,0.2-0.3,0.3c0,0.2,0.2,0.3,0.3,0.4
			c0,0-0.1,0-0.2,0c-0.6-0.3-1.2-0.5-1.8-0.8c-0.2,0-0.4-0.2-0.6-0.3c-0.5-0.2-0.9-0.4-1.4-0.6c-1.3-0.7-2.7-1-4-1.5
			c-0.3-0.1-0.6-0.2-0.9-0.2c-0.5-0.1-1-0.3-1.5-0.4c-1.7-0.4-4-0.5-5.4,0.5c-0.2-0.1-0.4,0.3-0.5,0.1c0.4-1.1,1.6-1.5,2.7-1.5
			c8-0.1,15.5-0.1,23.4-0.3c0.9,0,1.8-0.3,2.3-1.1C96,39.1,96.1,38.2,95.8,37.7L95.8,37.7z M64.1,45.1c-0.1,0.2-0.2,0.4-0.2,0.7
			l-0.1,0c0.1-0.3-0.2-0.5-0.2-0.8c-0.2-0.2-0.2-0.5-0.3-0.8c-0.2-0.3,0.2-0.5,0.3-0.7c0.3,0.1,0.4,0.4,0.6,0.6
			C64.4,44.5,64.1,44.8,64.1,45.1L64.1,45.1z"/>
		<path d="M85.8,43.9c0,0.1,0.1,0.1,0.1,0.2c-0.7,0.6-1.7,0.8-2.7,0.8c-0.1,0-0.2,0.1-0.3,0.1c-0.1,0-0.1-0.1,0-0.1
			C83.6,44,84.7,43.6,85.8,43.9L85.8,43.9z"/>
		<path d="M82.6,44.2c0.1,0.3-0.1,0.4-0.3,0.5c-0.2,0-0.3-0.2-0.4-0.3c-0.1-0.2,0.1-0.2,0.1-0.3C82.1,43.9,82.5,43.9,82.6,44.2
			L82.6,44.2z"/>
		<path d="M44.7,44.2c0,0.1,0,0.3-0.1,0.4c-0.1,0.1-0.3,0.1-0.4,0.1c-0.1,0-0.2-0.2-0.3-0.3c0-0.2,0.1-0.3,0.3-0.4
			C44.4,44.1,44.5,44,44.7,44.2L44.7,44.2z"/>
		<path d="M41.1,45.5v0.1c-0.5,0.1-0.9,0-1.3-0.3c-0.3-0.4-0.6-0.8-1.1-1c0-0.1-0.1-0.1,0-0.2C39.7,44.2,40.3,45,41.1,45.5
			L41.1,45.5z"/>
		<path d="M88.8,44.2c-0.5,0.7-0.9,1.5-1.7,1.8c-0.1,0-0.3,0.2-0.4,0.1c0.3-0.8,1-1.6,1.8-1.9C88.6,44.2,88.7,44.2,88.8,44.2
			L88.8,44.2z"/>
		<path d="M45.8,44.4c0,0.2-0.1,0.3-0.3,0.4c-0.2,0-0.2-0.1-0.3-0.2c-0.1-0.2,0.1-0.3,0.2-0.4C45.6,44.2,45.7,44.3,45.8,44.4
			L45.8,44.4z"/>
		<path d="M91.3,44.6c-0.2,0.3-0.1,0.6-0.3,0.9c-0.4,0.5-0.7,1-1.4,1.1c-0.1-0.2,0.1-0.4,0.2-0.6c0.3-0.6,0.7-1.3,1.3-1.5L91.3,44.6
			L91.3,44.6z"/>
		<path d="M34.9,44.7c0.1,0.1,0.1,0.3,0,0.4c-0.1,0.1-0.3,0.1-0.5,0.1c-0.2-0.1-0.2-0.3-0.2-0.5C34.4,44.6,34.8,44.5,34.9,44.7
			L34.9,44.7z"/>
		<path d="M33.8,45c0,0.1,0.1,0.2,0.1,0.3c-0.1,0.1-0.2,0.2-0.3,0.2c-0.2,0-0.4-0.1-0.5-0.3c0-0.2,0-0.3,0.2-0.4
			C33.5,44.7,33.7,44.8,33.8,45L33.8,45z"/>
		<path d="M36.1,45.1c0,0.2,0.1,0.4-0.2,0.5c-0.3,0.1-0.4-0.1-0.6-0.2c0-0.2,0.1-0.3,0.2-0.4C35.8,44.9,36,44.9,36.1,45.1L36.1,45.1
			z"/>
		<path d="M39.4,45.4c0,0.1,0,0.3-0.1,0.4c-0.1,0.1-0.3,0.1-0.4,0c0-0.1-0.3-0.2-0.1-0.4c0.1-0.1,0.2-0.2,0.3-0.2
			C39.1,45.3,39.3,45.2,39.4,45.4L39.4,45.4z"/>
		<path d="M93.2,45.5c-0.1,0.1-0.1,0.3-0.3,0.3c-0.2,0-0.4,0-0.5-0.2c-0.1-0.2,0.1-0.3,0.3-0.4C92.9,45.2,93.2,45.3,93.2,45.5
			L93.2,45.5z"/>
		<path d="M89.6,45.6c0,0.2-0.2,0.3-0.2,0.3c-0.3,0.1-0.5-0.1-0.6-0.3c0-0.2,0.2-0.3,0.3-0.4C89.3,45.3,89.5,45.4,89.6,45.6
			L89.6,45.6z"/>
		<path d="M92,45.6c0,0.1-0.1,0.3-0.2,0.3c-0.2,0.1-0.4,0-0.5-0.1c-0.2-0.2,0-0.3,0.1-0.4C91.6,45.3,92,45.3,92,45.6L92,45.6z"/>
		<path d="M34.4,45.9c0,0.2,0,0.4-0.2,0.5c-0.2,0-0.4-0.1-0.4-0.3c0-0.2,0-0.4,0.2-0.4C34.1,45.6,34.3,45.8,34.4,45.9L34.4,45.9z"/>
		<path d="M88.6,46.1c0.1,0.2-0.1,0.4-0.3,0.5c-0.2,0-0.3,0-0.4-0.1c-0.1-0.1-0.2-0.3,0-0.4C88.1,45.8,88.5,45.9,88.6,46.1
			L88.6,46.1z"/>
		<path d="M45.1,46.3c0.1,0.2-0.2,0.3-0.2,0.4c-0.1,0-0.2,0.1-0.3,0c-0.1-0.1-0.2-0.2-0.2-0.4c0.1-0.1,0.1-0.2,0.3-0.2
			C44.9,46,45,46.2,45.1,46.3L45.1,46.3z"/>
		<path d="M92.9,46.5c0,0.1-0.1,0.2-0.1,0.3c-0.1,0.1-0.3,0.1-0.5,0.1c-0.2-0.1-0.2-0.3-0.2-0.4c0.1-0.1,0.1-0.2,0.3-0.2
			C92.6,46.2,92.8,46.3,92.9,46.5L92.9,46.5z"/>
		<path d="M91.6,46.5c0.1,0.2-0.1,0.4-0.3,0.4c-0.1,0-0.2,0-0.2,0.1c0.5,0.3,0.8,0.7,1.2,1.1v0.2c-0.7,0-1.5-0.2-2-0.8
			c-0.1-0.1-0.4-0.1-0.5-0.2c0.3-0.3,0.7-0.2,1.1-0.2c0.3-0.3-0.3-0.5,0-0.7c0.1,0,0.2-0.1,0.4-0.1C91.5,46.3,91.5,46.4,91.6,46.5
			L91.6,46.5z"/>
		<path d="M83.5,46.6c0,0.1-0.1,0.2-0.1,0.3C83.3,47,83.1,47,82.9,47c-0.1-0.1-0.3-0.3-0.2-0.5C82.9,46.2,83.4,46.3,83.5,46.6
			L83.5,46.6z"/>
		<path d="M38.9,47.3c-0.1,0.2-0.1,0.3-0.3,0.3c-0.2,0-0.3-0.1-0.4-0.2c0-0.1,0.1-0.2,0.1-0.3C38.5,46.8,38.9,47,38.9,47.3
			L38.9,47.3z"/>
		<path d="M40.5,47c0,0.3-0.3,0.4-0.4,0.7c-0.3,0.7-0.8,1.3-1.6,1.3c-0.1-0.2,0.3-0.4,0.3-0.6c0.3-0.7,1-1,1.5-1.5H40.5L40.5,47z"/>
		<path d="M83,47.3c0,0.2-0.2,0.4-0.3,0.5c-0.2,0.1-0.3-0.1-0.4-0.2c-0.2-0.2-0.1-0.3,0-0.5C82.5,46.9,82.8,47.1,83,47.3L83,47.3z"
			/>
		<path d="M84.2,47.4c0,0.2-0.2,0.4-0.4,0.4c0-0.1-0.1,0-0.2,0c-0.1-0.1-0.3-0.2-0.3-0.4c0.1-0.1,0.1-0.3,0.3-0.3
			C83.9,47.2,84.2,47.2,84.2,47.4L84.2,47.4z"/>
		<path d="M43.6,47.4c0,0.2-0.1,0.3-0.3,0.4c-0.2,0-0.3-0.1-0.4-0.2c0-0.2,0.1-0.3,0.2-0.4C43.4,47.1,43.5,47.3,43.6,47.4L43.6,47.4
			z"/>
		<path d="M45,47.5c-0.1,0.2-0.2,0.3-0.4,0.3c-0.1,0-0.3-0.1-0.4-0.2c0-0.2,0.1-0.3,0.3-0.4C44.7,47.2,44.9,47.3,45,47.5L45,47.5z"
			/>
		<path d="M88.5,48.9c0.1,0.1,0.3,0.2,0.2,0.3c-0.3,0.1-0.6-0.2-0.9-0.3c-0.5-0.5-0.8-1-1-1.6c0.2-0.2,0.4,0,0.5,0.1
			C87.8,47.8,88.3,48.3,88.5,48.9L88.5,48.9z"/>
		<path d="M89.3,47.5c0.1,0.1,0,0.3,0,0.4c-0.1,0.2-0.4,0.2-0.6,0.1c-0.1-0.1-0.3-0.3-0.2-0.5c0.1-0.2,0.2-0.2,0.4-0.3
			C89,47.3,89.1,47.4,89.3,47.5L89.3,47.5z"/>
		<path d="M46.8,48c0,0.2,0.1,0.4-0.1,0.5c-0.2,0-0.4,0-0.5-0.2c-0.1-0.2,0.1-0.3,0.2-0.4C46.6,47.8,46.7,47.9,46.8,48L46.8,48z"/>
		<path d="M84.2,49.3c0.3,0.4,0.5,0.9,0.5,1.4c-0.1,0.1,0.1,0.3,0,0.4h-0.1c-0.9-0.6-1.1-1.5-1.4-2.4c-0.1,0-0.1-0.1-0.1-0.2
			c0.2-0.2,0.3,0.2,0.5,0.2L84.2,49.3L84.2,49.3z"/>
		<path d="M49.4,48.6C49.4,48.6,49.4,48.7,49.4,48.6c-0.8,0.6-1.9,0.9-2.8,0.4c0-0.1,0-0.2,0.1-0.2c0.6-0.2,1.1-0.5,1.8-0.4
			L49.4,48.6L49.4,48.6z"/>
		<path d="M44.9,48.7c-0.7,0.4-1.3,1.2-2.1,1.4c-0.2,0.1-0.3,0.3-0.5,0.2c0.4-1.1,1.5-1.7,2.6-1.8V48.7L44.9,48.7z"/>
		<path d="M83,49.6c0.1,0.2,0,0.4-0.2,0.4c-0.1,0.1-0.3,0.1-0.4,0c-0.2-0.1-0.2-0.3-0.2-0.4c0.1-0.1,0.2-0.2,0.3-0.2
			C82.8,49.5,82.9,49.5,83,49.6L83,49.6z"/>
		<path d="M81.3,49.7c-0.1,0.3-0.5,0.4-0.7,0.5c-0.7,0.2-1.3-0.1-1.9-0.2c0-0.2,0.2-0.1,0.3-0.2c0.7-0.1,1.3-0.3,2-0.1
			C81.1,49.7,81.3,49.7,81.3,49.7L81.3,49.7z"/>
		<path d="M44.9,50.3c-0.1,0.1-0.1,0.3-0.2,0.3c-0.1,0.1-0.3,0-0.4-0.1c0-0.1-0.2-0.2-0.1-0.4c0-0.1,0.2-0.2,0.3-0.2
			C44.7,50,44.8,50.1,44.9,50.3L44.9,50.3z"/>
		<path d="M46,50.5c-0.1,0.1-0.1,0.3-0.3,0.4c-0.2,0-0.3,0-0.4-0.1c-0.1-0.1-0.1-0.3-0.1-0.4c0-0.1,0.2-0.1,0.3-0.2
			C45.8,50.1,46,50.3,46,50.5L46,50.5z"/>
		<path d="M82.6,50.7c0,0.2-0.1,0.3-0.1,0.4c-0.1,0.1-0.3,0.2-0.4,0.1c-0.1,0-0.2-0.2-0.2-0.3c-0.1-0.2,0.1-0.3,0.1-0.4
			C82.2,50.3,82.5,50.4,82.6,50.7L82.6,50.7z"/>
		<path d="M83.5,50.7c0,0.1,0.1,0.2,0,0.3c-0.1,0.1-0.2,0.4-0.4,0.3c-0.1,0-0.2-0.1-0.2-0.2c-0.1-0.2,0-0.5,0.2-0.5
			C83.3,50.4,83.4,50.6,83.5,50.7L83.5,50.7z"/>
		<path d="M45.3,51.2c0,0.2,0,0.4-0.2,0.5c-0.2,0-0.5,0-0.6-0.2c0-0.2,0-0.5,0.2-0.6C45,51,45.2,51,45.3,51.2L45.3,51.2z"/>
		<path d="M46.4,51.2c0,0.6-0.2,1.2-0.7,1.6c-0.3,0.1-0.6,0.4-1,0.2v-0.1C45.2,52.2,46,51.7,46.4,51.2L46.4,51.2z"/>
		<path d="M79.5,51.6c0.1,0.1-0.1,0.2-0.1,0.3c-0.1,0.1-0.3,0.1-0.5,0c-0.1-0.1-0.2-0.3-0.1-0.4c0-0.1,0.2-0.2,0.3-0.2
			C79.2,51.3,79.4,51.5,79.5,51.6L79.5,51.6z"/>
		<path d="M48.4,52.5c0.3,0.5,0.1,1.1,0.3,1.6c-0.3,0-0.5-0.3-0.7-0.5c-0.4-0.6-0.4-1.4-0.6-2.1c0-0.1,0.1-0.1,0.1,0
			c0.3,0.2,0.5,0.6,0.8,0.8C48.3,52.4,48.5,52.4,48.4,52.5L48.4,52.5z"/>
		<path d="M80.5,51.8c0,0.2-0.2,0.2-0.3,0.3c-0.1,0-0.3-0.1-0.4-0.2c-0.1-0.2,0.1-0.3,0.2-0.4C80.2,51.5,80.4,51.6,80.5,51.8
			L80.5,51.8z"/>
		<path d="M82.9,53.6c0,0.1,0,0.2-0.1,0.1h-0.1c-0.6-0.5-1.2-1.1-1.1-1.9l0.1,0C82.2,52.2,82.8,52.7,82.9,53.6L82.9,53.6z"/>
		<path d="M81.4,52.9c0,0.2-0.1,0.3-0.2,0.4c-0.2,0.1-0.6,0-0.6-0.3c0-0.2,0.2-0.3,0.3-0.4C81.1,52.6,81.3,52.7,81.4,52.9L81.4,52.9
			z"/>
		<path d="M80,53.3c-0.3,0.7-1,1.1-1.6,1.7c-0.1-0.1-0.1-0.2,0-0.3c0.2-0.8,0.8-1.5,1.5-1.8C80.3,53,80,53.2,80,53.3L80,53.3z"/>
		<path d="M81.5,53.9c0,0.2-0.2,0.3-0.3,0.4c-0.2,0-0.3-0.1-0.4-0.2c0-0.2,0.1-0.3,0.3-0.4C81.3,53.7,81.5,53.8,81.5,53.9L81.5,53.9
			z"/>
		<path d="M66.7,17.5c0.3,0,0.5,0.2,0.5,0.5c0,0.3-0.2,0.5-0.5,0.5h-5.9c-0.3,0-0.5-0.2-0.5-0.5c0-0.3,0.2-0.5,0.5-0.5H66.7
			L66.7,17.5z M62.5,18.4c0.6,0,0-0.7-0.3-0.7h-0.6c-0.6,0,0,0.7,0.3,0.7H62.5L62.5,18.4z M64.9,18.4c0.6,0,0-0.7-0.3-0.7h-0.6
			c-0.6,0,0,0.7,0.3,0.7H64.9L64.9,18.4z M66.7,17.7h-0.2c-0.6,0-0.1,0.7,0.2,0.7C67.1,18.4,67.1,17.7,66.7,17.7L66.7,17.7z"/>
		<path d="M66.2,24.3l1.1,0.4l1.1-0.4L68,25.9l0.9-0.2l-0.3,1l0.3,1l-0.8-0.2l0.3,1.8l-1.1-0.4l-1.1,0.4l0.5-1.8l-0.9,0.3l0.2-1
			l-0.2-1l0.9,0.1L66.2,24.3L66.2,24.3z M67.9,27.3c0.3,0,0.3-0.4,0.3-0.7c0-0.7-0.5,0-0.8-0.6c-0.2,0.5-0.8,0-0.8,0.6
			c0,0.4,0,0.7,0.4,0.7H67.9L67.9,27.3z M66.7,26.7c0,0.3,0.4,0.1,0.6,0.1c0.3,0,0.6,0.2,0.6-0.1c0-0.4-0.3-0.2-0.6-0.2
			C67.1,26.4,66.7,26.3,66.7,26.7L66.7,26.7z"/>
		<polygon points="63.5,26.7 63.5,26.5 63.4,26.5 63.5,26.3 63.4,26.2 63.6,26.2 63.7,26 63.8,26.2 64,26.2 63.9,26.3 64.1,26.5 
			63.9,26.5 63.9,26.7 63.7,26.6 63.5,26.7 		"/>
		<polygon points="62.7,27.9 62.7,27.6 62.5,27.6 62.6,27.5 62.5,27.3 62.7,27.3 62.8,27.1 63,27.3 63.2,27.3 63.1,27.5 63.2,27.6 
			63,27.6 63,27.9 62.8,27.7 62.7,27.9 		"/>
		<polygon points="64.2,27.7 64.2,27.5 64,27.5 64.1,27.3 64,27.1 64.2,27.2 64.3,27 64.4,27.2 64.6,27.1 64.5,27.3 64.7,27.5 
			64.5,27.5 64.5,27.7 64.3,27.6 64.2,27.7 		"/>
		<polygon points="64.3,28.6 64.3,28.4 64.2,28.4 64.3,28.3 64.3,28.2 64.4,28.2 64.4,28.1 64.5,28.2 64.6,28.2 64.6,28.3 
			64.6,28.4 64.5,28.4 64.5,28.6 64.4,28.5 64.3,28.6 		"/>
		<polygon points="62.9,29.5 62.9,29.2 62.6,29.1 62.9,28.8 62.7,28.5 63,28.6 63.3,28.2 63.4,28.6 63.8,28.5 63.6,28.8 63.9,29.1 
			63.6,29.2 63.6,29.5 63.3,29.3 62.9,29.5 		"/>
		<polygon points="63.6,10.6 64.3,12.3 66.1,11.8 65.2,13.4 66.7,14.5 64.9,14.8 65,16.7 63.6,15.4 62.3,16.7 62.4,14.8 60.6,14.5 
			62.1,13.4 61.2,11.8 62.9,12.3 63.6,10.6 		"/>
		<path d="M57.2,49.3c-0.2,0.1-0.3,0.1-0.2,0.4l0.3,1.1c0,0.2,0.1,0.5-0.1,0.7c-0.2,0.2-0.5,0.4-0.7,0.4c-0.2,0-0.5,0.1-0.9,0
			c-0.2-0.1-0.3-0.2-0.4-0.5l-0.3-1.1c-0.1-0.3-0.2-0.3-0.4-0.2l0-0.1l1.3-0.3l0,0.1c-0.3,0.1-0.4,0.1-0.3,0.4l0.3,1.1
			c0,0.2,0.2,0.6,0.7,0.5c0.7-0.2,0.6-0.7,0.5-0.9l-0.2-1c0-0.2-0.1-0.3-0.5-0.2l0-0.1L57.2,49.3L57.2,49.3L57.2,49.3z"/>
		<path d="M59.2,49.5c-0.1-0.2-0.4-0.5-0.9-0.4c-0.2,0-0.4,0.2-0.4,0.4c0,0.2,0.1,0.2,0.5,0.3l0.6,0.1c0.1,0,0.5,0.2,0.6,0.5
			c0.1,0.3-0.1,0.8-0.8,0.9c-0.4,0.1-0.6,0-0.7,0c-0.1,0-0.1,0.1-0.1,0.1l-0.1,0l-0.2-0.8l0.1,0c0.2,0.3,0.5,0.6,1,0.5
			c0.5-0.1,0.4-0.4,0.4-0.5c0-0.2-0.3-0.3-0.5-0.3l-0.3,0c-0.7-0.1-0.8-0.4-0.8-0.6c0-0.2,0-0.7,0.7-0.9c0.3-0.1,0.5,0,0.6,0
			c0.1,0,0.1-0.1,0.1-0.1l0.1,0l0.2,0.7L59.2,49.5L59.2,49.5z"/>
		<path d="M61.8,50.8L60.4,51l0-0.1c0.3,0,0.4-0.1,0.4-0.3l-0.2-1.8c-0.3,0-0.7,0.1-0.7,0.6l-0.1,0l-0.1-0.7l2.4-0.2l0.1,0.7l-0.1,0
			c-0.1-0.5-0.6-0.5-0.8-0.5l0.2,1.8C61.4,50.8,61.5,50.8,61.8,50.8L61.8,50.8L61.8,50.8z"/>
		<path d="M65.2,50.8l-0.8,0l-0.8-1.1l-0.1,0l0,0.7c0,0.3,0.1,0.3,0.4,0.3l0,0.1l-1.4,0l0-0.1c0.3,0,0.4,0,0.4-0.3l0-1.5
			c0-0.3-0.1-0.3-0.4-0.3l0-0.1l1.3,0c0.3,0,1.1,0,1.1,0.6c0,0.4-0.4,0.5-0.7,0.6l0.8,1C65.1,50.7,65.2,50.8,65.2,50.8L65.2,50.8
			L65.2,50.8z M63.4,49.6c0.5,0,0.7-0.1,0.8-0.5c0-0.3-0.2-0.5-0.5-0.5c-0.2,0-0.2,0-0.3,0.1L63.4,49.6L63.4,49.6z"/>
		<path d="M67.9,51.2L66.6,51l0-0.1c0.3,0,0.3,0,0.3-0.1c0-0.1-0.1-0.4-0.1-0.5l-0.9-0.1c-0.1,0.2-0.2,0.4-0.2,0.4
			c0,0.1,0.2,0.2,0.3,0.2l0,0.1l-0.8-0.1l0-0.1c0.2,0,0.3-0.1,0.4-0.3l1.1-1.7l0.1,0l0.7,1.9C67.6,51,67.7,51.1,67.9,51.2L67.9,51.2
			L67.9,51.2z M66.7,50.2l-0.3-0.9L66,50.1L66.7,50.2L66.7,50.2z"/>
		<path d="M70.2,51.7l-2.3-0.4l0-0.1c0.2,0,0.3,0,0.4-0.2l0.3-1.6c0-0.2-0.1-0.3-0.3-0.3l0-0.1l1.4,0.3l0,0.1
			c-0.3,0-0.4-0.1-0.5,0.2L69,51.1c0,0.2,0.1,0.2,0.3,0.3c0.6,0.1,0.9-0.1,1.1-0.5l0.1,0L70.2,51.7L70.2,51.7z"/>
		<path d="M71.8,52l-1.4-0.3l0-0.1c0.2,0,0.4,0,0.4-0.2l0.3-1.6c0-0.2-0.1-0.3-0.3-0.3l0-0.1l1.4,0.3l0,0.1c-0.2,0-0.4-0.1-0.4,0.2
			l-0.3,1.6C71.4,51.8,71.6,51.9,71.8,52L71.8,52L71.8,52z"/>
		<path d="M74.6,52.4l-1.3-0.1l0-0.1c0.3,0,0.3,0,0.3-0.1c0-0.1-0.1-0.4-0.1-0.5l-0.9-0.1c-0.1,0.2-0.2,0.4-0.2,0.4
			c0,0.1,0.2,0.2,0.3,0.2l0,0.1l-0.8-0.1l0-0.1c0.2,0,0.3-0.1,0.4-0.4l1.1-1.8l0.1,0l0.7,1.9C74.4,52.1,74.4,52.3,74.6,52.4
			L74.6,52.4L74.6,52.4z M73.5,51.4l-0.3-0.9l-0.5,0.8L73.5,51.4L73.5,51.4z"/>
		<path d="M64.2,24.8c0-0.8-0.5-0.1-0.7-0.7c-0.2,0.6-0.7,0.1-0.7,0.7c0,0.2,0.1,0.4,0.2,0.5v0.2c0,0.1,0.1,0.1,0.1,0.1h0.9
			c0.1,0,0.1-0.1,0.1-0.1v-0.3C64.1,25.2,64.2,25,64.2,24.8L64.2,24.8z M63.5,25c-0.2,0-0.6,0.2-0.6-0.1c0-0.4,0.3-0.3,0.5-0.3
			c0.2,0,0.6-0.1,0.6,0.3C64.1,25.2,63.7,25,63.5,25L63.5,25z"/>
		<path d="M71.3,34.9c0.2,0,0.4-0.1,0.4-0.3c0-0.2-0.2-0.3-0.4-0.3S71,34.4,71,34.6C71,34.7,71.1,34.9,71.3,34.9L71.3,34.9z"/>
		<path d="M69.6,22.7c0,0-0.2,0.3-0.2,0.4c0,0.1,0.1,0.2,0.2,0.2c0.1,0,0.2-0.1,0.2-0.2C69.8,23.1,69.6,22.7,69.6,22.7L69.6,22.7z"
			/>
		<path d="M57.5,22.7c0,0-0.2,0.3-0.2,0.4c0,0.1,0.1,0.2,0.2,0.2c0.1,0,0.2-0.1,0.2-0.2C57.7,23.1,57.5,22.7,57.5,22.7L57.5,22.7z"
			/>
		<path d="M60.5,22.7c0,0-0.2,0.3-0.2,0.4c0,0.1,0.1,0.2,0.2,0.2c0.1,0,0.2-0.1,0.2-0.2C60.7,23.1,60.5,22.7,60.5,22.7L60.5,22.7z"
			/>
		<path d="M63.6,22.7c0,0-0.2,0.3-0.2,0.4c0,0.1,0.1,0.2,0.2,0.2c0.1,0,0.2-0.1,0.2-0.2C63.7,23.1,63.6,22.7,63.6,22.7L63.6,22.7z"
			/>
		<path d="M66.6,22.7c0,0-0.2,0.3-0.2,0.4c0,0.1,0.1,0.2,0.2,0.2c0.1,0,0.2-0.1,0.2-0.2C66.7,23.1,66.6,22.7,66.6,22.7L66.6,22.7z"
			/>
		<path d="M57.5,26.9c0,0,0.2,0.3,0.2,0.4c0,0.1-0.1,0.2-0.2,0.2c-0.1,0-0.2-0.1-0.2-0.2C57.4,27.2,57.5,26.9,57.5,26.9L57.5,26.9z"
			/>
		<path d="M57.5,30.9c0,0,0.2,0.3,0.2,0.4c0,0.1-0.1,0.2-0.2,0.2c-0.1,0-0.2-0.1-0.2-0.2C57.4,31.2,57.5,30.9,57.5,30.9L57.5,30.9z"
			/>
		<path d="M58,34.1c0,0,0.2,0.3,0.2,0.4c0,0.1-0.1,0.2-0.2,0.2c-0.1,0-0.2-0.1-0.2-0.2C57.8,34.4,58,34.1,58,34.1L58,34.1z"/>
		<path d="M60.5,35.8c0,0,0.2,0.3,0.2,0.4c0,0.1-0.1,0.2-0.2,0.2c-0.1,0-0.2-0.1-0.2-0.2C60.4,36.1,60.5,35.8,60.5,35.8L60.5,35.8z"
			/>
		<path d="M69.7,26.9c0,0-0.2,0.3-0.2,0.4c0,0.1,0.1,0.2,0.2,0.2c0.1,0,0.2-0.1,0.2-0.2C69.9,27.2,69.7,26.9,69.7,26.9L69.7,26.9z"
			/>
		<path d="M69.7,30.9c0,0-0.2,0.3-0.2,0.4c0,0.1,0.1,0.2,0.2,0.2c0.1,0,0.2-0.1,0.2-0.2C69.9,31.2,69.7,30.9,69.7,30.9L69.7,30.9z"
			/>
		<path d="M69.2,34.1c0,0-0.2,0.3-0.2,0.4c0,0.1,0.1,0.2,0.2,0.2c0.1,0,0.2-0.1,0.2-0.2C69.4,34.4,69.2,34.1,69.2,34.1L69.2,34.1z"
			/>
		<path d="M66.7,35.8c0,0-0.2,0.3-0.2,0.4c0,0.1,0.1,0.2,0.2,0.2c0.1,0,0.2-0.1,0.2-0.2C66.9,36.1,66.7,35.8,66.7,35.8L66.7,35.8z"
			/>
		<path d="M63.6,37.6c0,0-0.2,0.3-0.2,0.4c0,0.1,0.1,0.2,0.2,0.2c0.1,0,0.2-0.1,0.2-0.2C63.8,37.9,63.6,37.6,63.6,37.6L63.6,37.6z"
			/>
		<path d="M68.5,31.6c0,0.1,0.1,0.1,0.3,0l0.1-0.3c0,0-0.1-0.2-0.2-0.1c-0.3,0.1-0.7,0.1-0.9,0.4c0,0.2,0.2,0.4,0.3,0.5
			c0.1,0,0.1,0.1,0.2,0.1c0,0.1,0,0.2-0.1,0.2c-0.2-0.2-0.6,0.1-0.8-0.2c0.1-0.3,0.2-0.6,0-0.9c0-0.1,0.1-0.1,0.1-0.2
			c-0.1-0.3-0.4-0.1-0.5-0.1c-0.3,0-0.5,0.1-0.7,0.3c0,0.1,0.1,0.2,0.2,0.3c0.1,0,0.1,0,0.1,0.1l-0.2,0.1c0.1,0.1,0.1,0.1,0.1,0.2
			c-0.1,0.1-0.3-0.1-0.3-0.2c0-0.2,0-0.4-0.2-0.5c0,0-0.2,0.1-0.2,0.1c0,0.1-0.1,0.2-0.1,0.3c0,0.1,0.1,0.3,0.1,0.3s0.6,0.4,0.7,0.7
			c-0.2,0.3-0.2,0.8-0.6,1c-0.1,0.1-0.1,0.2-0.1,0.3l0.1,0.1c0.2-0.1,0.7-0.2,0.7-0.6c0.1-0.2,0.2-0.4,0.4-0.5
			c0.2,0,0.4,0.1,0.4,0.2c-0.1,0.3-0.2,0.5-0.5,0.6c0,0,0,0.1,0,0.2c0.1,0.1,0.3,0.1,0.4,0.1c0.3-0.2,0.5-0.6,0.7-0.7
			c0,0.2-0.4,0.2-0.1,0.4c0.2,0,0.4,0,0.5-0.2c-0.1-0.3,0.5-0.5,0.1-0.8c0-0.3,0.3-0.4,0.3-0.7c-0.1-0.3-0.5-0.3-0.6-0.6
			C68.3,31.5,68.4,31.5,68.5,31.6L68.5,31.6z"/>
		<path d="M54.7,35c0.2,0,0.4-0.1,0.4-0.3c0-0.2-0.2-0.3-0.4-0.3s-0.4,0.1-0.4,0.3C54.3,34.9,54.5,35,54.7,35L54.7,35z"/>
		<path d="M35.2,46.4c0.2,0,0.4-0.2,0.4-0.4c0-0.2-0.2-0.4-0.4-0.4c-0.2,0-0.4,0.2-0.4,0.4C34.8,46.3,35,46.4,35.2,46.4L35.2,46.4z"
			/>
		<path d="M47.6,49.2L47.6,49.2L47.6,49.2L47.6,49.2L47.6,49.2C47.6,49.2,47.6,49.2,47.6,49.2L47.6,49.2L47.6,49.2L47.6,49.2
			C47.5,49.2,47.5,49.2,47.6,49.2L47.6,49.2C47.5,49.2,47.5,49.2,47.6,49.2L47.6,49.2L47.6,49.2C47.6,49.1,47.6,49.1,47.6,49.2
			C47.6,49.2,47.6,49.2,47.6,49.2L47.6,49.2C47.6,49.2,47.6,49.2,47.6,49.2L47.6,49.2L47.6,49.2z M47.6,49.2
			C47.6,49.2,47.6,49.2,47.6,49.2C47.6,49.2,47.6,49.2,47.6,49.2C47.6,49.2,47.6,49.2,47.6,49.2L47.6,49.2L47.6,49.2z"/>
		<path d="M47.7,49.2C47.7,49.2,47.7,49.1,47.7,49.2C47.6,49.1,47.6,49.2,47.7,49.2C47.6,49.2,47.6,49.2,47.7,49.2L47.7,49.2
			C47.7,49.2,47.7,49.2,47.7,49.2C47.7,49.2,47.7,49.2,47.7,49.2C47.6,49.2,47.6,49.2,47.7,49.2C47.6,49.2,47.6,49.2,47.7,49.2
			L47.7,49.2L47.7,49.2L47.7,49.2C47.6,49.2,47.6,49.2,47.7,49.2C47.7,49.2,47.7,49.2,47.7,49.2C47.7,49.2,47.7,49.2,47.7,49.2
			L47.7,49.2C47.6,49.2,47.6,49.2,47.7,49.2C47.6,49.2,47.6,49.1,47.7,49.2C47.7,49.1,47.7,49.1,47.7,49.2
			C47.7,49.1,47.7,49.1,47.7,49.2L47.7,49.2L47.7,49.2L47.7,49.2L47.7,49.2z"/>
		<path d="M47.8,49.2C47.8,49.2,47.8,49.2,47.8,49.2L47.8,49.2L47.8,49.2L47.8,49.2L47.8,49.2L47.8,49.2L47.8,49.2l-0.1,0
			c0,0,0,0,0,0v0L47.8,49.2L47.8,49.2C47.7,49.2,47.7,49.2,47.8,49.2C47.7,49.2,47.7,49.2,47.8,49.2L47.8,49.2L47.8,49.2L47.8,49.2
			L47.8,49.2C47.7,49.2,47.7,49.2,47.8,49.2L47.8,49.2L47.8,49.2L47.8,49.2C47.8,49.2,47.7,49.2,47.8,49.2
			C47.7,49.2,47.8,49.2,47.8,49.2L47.8,49.2L47.8,49.2L47.8,49.2C47.8,49.2,47.8,49.2,47.8,49.2C47.8,49.2,47.8,49.2,47.8,49.2
			L47.8,49.2L47.8,49.2L47.8,49.2L47.8,49.2z"/>
		<path d="M47.8,49.2C47.8,49.2,47.8,49.2,47.8,49.2C47.8,49.2,47.8,49.2,47.8,49.2C47.8,49.2,47.8,49.2,47.8,49.2
			C47.8,49.2,47.8,49.2,47.8,49.2C47.8,49.2,47.8,49.1,47.8,49.2C47.8,49.1,47.8,49.2,47.8,49.2C47.8,49.2,47.8,49.2,47.8,49.2
			L47.8,49.2L47.8,49.2z M47.8,49.2C47.8,49.2,47.8,49.2,47.8,49.2C47.8,49.2,47.8,49.2,47.8,49.2C47.8,49.2,47.8,49.1,47.8,49.2
			C47.8,49.1,47.8,49.2,47.8,49.2C47.8,49.2,47.8,49.2,47.8,49.2L47.8,49.2z"/>
		<path d="M47.9,49.2C47.9,49.2,47.9,49.2,47.9,49.2C47.9,49.2,47.9,49.2,47.9,49.2C47.9,49.2,47.9,49.2,47.9,49.2
			C47.9,49.2,47.9,49.2,47.9,49.2C47.9,49.2,47.9,49.2,47.9,49.2C47.9,49.2,47.9,49.2,47.9,49.2C47.9,49.2,47.9,49.2,47.9,49.2
			C47.9,49.2,47.9,49.2,47.9,49.2C47.9,49.2,47.9,49.2,47.9,49.2L47.9,49.2L47.9,49.2L47.9,49.2L47.9,49.2L47.9,49.2L47.9,49.2z"/>
		<path d="M70.6,22.3L70.6,22.3l-13.9,0v0h0l0,10.6c0,1.1,0.5,2,1.1,2.3l5.3,3.4c0.1,0.1,0.3,0.2,0.5,0.2c0.2,0,0.3-0.1,0.4-0.2
			l5.4-3.4c0.6-0.3,1.1-1.2,1.1-2.3L70.6,22.3L70.6,22.3L70.6,22.3z M70.2,33c-0.1,0.8-0.3,1.5-0.9,1.9L64,38.2h0
			c-0.1,0.1-0.3,0.1-0.4,0.1c-0.2,0-0.3-0.1-0.4-0.1L58,34.9c-0.6-0.4-0.8-1-0.9-1.9V22.6h13.1V33L70.2,33z"/>
		<path d="M65.5,37.7l0.2-0.1C65.6,37.7,65.5,37.7,65.5,37.7L65.5,37.7z"/>
		<path d="M55,52.3l-1.3,0.2l0-0.1c0.2,0,0.3-0.1,0.3-0.2c0-0.1-0.2-0.3-0.2-0.4l-0.9,0.1c-0.1,0.3-0.1,0.4-0.1,0.5
			c0,0.1,0.2,0.1,0.3,0.1l0,0.1l-0.8,0.1l0-0.1c0.2-0.1,0.3-0.2,0.4-0.4l0.7-2l0.1,0l1.1,1.7C54.7,52.1,54.8,52.2,55,52.3L55,52.3
			L55,52.3z M53.7,51.6l-0.5-0.8l-0.3,0.9L53.7,51.6L53.7,51.6z"/>
		<path d="M78,47.3c-0.2-0.6-0.7-1-1.4-1.2c-0.6-0.1-1.3,0-1.7,0.4c-0.7,0.6-0.2,1.5-0.2,2.3c0,0.2,0,0.3-0.1,0.4
			c-2.9-0.3-5.6-1-8.5-1.3c-0.7-0.1-1.3-0.1-2-0.2l-0.8-0.1c-2.5,0.1-5,0.2-7.3,0.8c-0.5,0.2-1.1,0.2-1.6,0.4
			c-0.4-0.1-0.7,0.2-1,0.1L52.9,49c-0.1,0-0.1,0-0.2,0c-0.3-0.8,0.6-1.3,0.3-2.1c-0.3-0.5-0.8-0.9-1.4-0.8c-0.7-0.1-1.3,0.3-1.6,0.8
			c-0.5,1,0.1,2,0.3,3c0,0.3,0.3,0.7,0,0.9c-0.6-0.4-1.5-0.7-2.3-0.5c-0.2,0.1-0.7,0-0.8,0.2c0.9,0.5,2,0.4,2.9,0.4
			c0.1,0,0.2-0.1,0.3,0c0.1,0.5-0.1,1.2,0.2,1.7c0.4,0.5,1,0.6,1.5,0.7c1.8-0.1,3.5-0.6,5.1-1c0.3,0,0.5-0.2,0.7-0.2
			c0.9-0.2,1.9-0.4,2.8-0.4c-0.4,0.5-0.7,1.1-0.8,1.8c-0.2,0.5,0.4,0.6,0.6,0.9c-0.6,0.2-1.1,0.6-1.6,0.8c-1.3,0-2.4,0.4-3.5,0.6
			c0,0.3,0.4,0.2,0.5,0.4c-0.1,0.2-0.2,0.2-0.4,0.3c0,0.1,0,0.1,0.1,0.2c0.1-0.1,0.4,0,0.5-0.2c0.4,0,0.7-0.1,1.1-0.1
			c0.3-0.1,0.7-0.2,1-0.4c0.4-0.1,0.7-0.4,1.1-0.5c0.6,0,1.1-0.2,1.7-0.2v0.1c-0.5,0.7-0.9,1.5-1.4,2.2c-0.1,0.1,0,0.3,0.1,0.3
			c0.3,0.1,0.6,0,0.8-0.1c0.4-0.7,0.8-1.4,1.1-2.2c0.1-0.7,0.6-1,1.1-1.5c0.1,0,0.2-0.2,0.3,0c-0.4,0.5-0.7,0.9-1,1.4
			c-0.2,0.6-0.2,1.3,0.3,1.7c0.2,0.2,0.6,0.1,0.9,0.2c0.8-0.4,1.8,0.2,2.4-0.5c0.4-0.1,0.4,0.4,0.6,0.6c0.3,0.1,0.7,0.4,1,0.2
			c0-0.2-0.3-0.4-0.4-0.6c-0.2-0.4-0.5-0.8-0.8-1.1c-0.1-0.3-0.3-0.5-0.3-0.7c0.4,0.1,0.7,0.4,1.1,0.4c0.3,0.1,0.8,0.1,1.1,0.3
			c0.3,0.3,0.7,0.5,1,0.8c0.5,0.2,1.1,0.3,1.6,0.5c0.2,0,0.5,0.2,0.6,0c-0.1-0.1-0.2-0.2-0.3-0.2c-0.1-0.3,0.4-0.1,0.5-0.3
			c0-0.1-0.1-0.1-0.2-0.2c-0.3-0.2-1-0.2-1.2-0.3c-0.2,0-0.5-0.1-0.7-0.2c-1.2,0-1.9-1.1-2.8-1.5c0.2-0.2,0.6-0.4,0.7-0.7
			c0.2-0.3,0.2-0.7,0.1-1.1c-0.2-0.6-1-0.5-1.4-0.9l0.1-0.1c0.8,0,1.5,0.1,2.2,0.3c1.9,0.3,3.7,1,5.7,1c1.1,0,2.5,0.1,3-1
			c0.1-0.6,0.2-1.2,0.3-1.9C77.5,49.3,78.1,48.4,78,47.3L78,47.3z M56.5,56.4l-0.3-0.3c0.1-0.2,0.4-0.1,0.7-0.2
			c0.5-0.2,1.1-0.4,1.7-0.2C58,56.2,57.2,56.3,56.5,56.4L56.5,56.4z M68.9,56.1c0.5,0.2,1.4,0.4,2.1,0.5c-0.1,0.3-0.5,0-0.5,0.4
			c-0.6-0.2-1.3-0.4-1.8-0.8C68.8,56.2,68.9,56.1,68.9,56.1L68.9,56.1z M50.2,47.6c0.1-0.4,0.1-0.7,0.5-1c0.5-0.3,1.1-0.2,1.6,0.1
			c0.1,0.1,0.2,0.2,0.3,0.4c0.1,0.3-0.1,0.7-0.3,0.9h-0.2c0-0.3,0-0.6,0.1-0.9c0-0.2-0.2-0.3-0.4-0.4c-0.3-0.1-0.6,0.1-0.9,0.2
			c-0.2,0.2-0.4,0.5-0.3,0.9c0.1,0.2,0,0.5,0.1,0.8l-0.1,0.1C50.5,48.3,50.2,48,50.2,47.6L50.2,47.6z M51.2,48.2
			c0.3,0.2,0.7,0.1,1.1,0.2c0.1,0.2,0.1,0.5-0.1,0.7c-0.3-0.1-0.8,0-1-0.4C51.2,48.5,51.1,48.3,51.2,48.2L51.2,48.2z M51.1,47.5
			c0.1-0.2,0-0.4,0.2-0.4c0.1,0,0.4,0,0.4,0.1c0,0.2,0,0.5-0.1,0.7C51.3,47.9,51.2,47.7,51.1,47.5L51.1,47.5z M60.5,53.9
			c-0.1-0.7,0.2-1.3,0.6-1.8c0.3-0.1,0.6-0.1,0.9,0c-0.5,0.1-1.2,0.3-1.3,0.9c0,0.3-0.1,0.4,0.1,0.6c0.2,0.4,0.7,0.2,1,0.5
			c0,0.1-0.1,0.2-0.2,0.2C61.2,54.3,60.8,54.2,60.5,53.9L60.5,53.9z M59.7,55.3c0.5-0.2,1-0.6,1.5-0.4
			C60.9,55.2,60.3,55.3,59.7,55.3L59.7,55.3z M61.6,55.5c-0.3,0.6-0.6,1.3-1,1.9c0,0.1-0.2,0.1-0.3,0.1c0-0.3,0.3-0.5,0.4-0.7
			c0.4-0.5,0.5-1.1,1-1.6C61.9,55.3,61.6,55.4,61.6,55.5L61.6,55.5z M62.1,54.4L62.1,54.4L62.1,54.4L62.1,54.4L62.1,54.4L62.1,54.4
			C62.2,54.3,62.1,54.3,62.1,54.4L62.1,54.4L62.1,54.4z M62,53.8c-0.3,0-0.7-0.1-1-0.2c-0.2-0.2,0-0.4,0-0.6
			c0.3-0.4,1.1-0.7,1.5-0.3C62.4,53.1,62.2,53.5,62,53.8L62,53.8z M62.4,53.8c0.1-0.3,0.2-0.6,0.3-0.8
			C62.7,53.2,62.6,53.6,62.4,53.8L62.4,53.8z M62.6,52.2c-0.3-0.1-0.4-0.4-0.7-0.4c0.2-0.1,0.5-0.1,0.8,0
			C62.8,51.9,62.6,52.1,62.6,52.2L62.6,52.2z M62.9,52.8L62.9,52.8l0-0.2h0V52.8L62.9,52.8z M62.9,53.7c0-0.1,0-0.2,0.1-0.3
			c0.1-0.1,0.2,0.1,0.2,0.1C63.1,53.7,63,53.7,62.9,53.7L62.9,53.7z M63.2,52.5c0.1-0.3,0.1-0.5,0.3-0.7c0.2,0,0.4,0,0.5,0.1
			c0,0.4,0.5,0.9,0,1.3c-0.2,0.1-0.4,0.3-0.6,0.1C63.1,52.9,63.1,52.7,63.2,52.5L63.2,52.5z M64.6,51.9c0-0.2,0.2,0,0.3-0.1l0.6,0
			C65.2,51.8,64.8,52.5,64.6,51.9L64.6,51.9z M65.6,52.2c-0.2,0.1-0.4,0.4-0.7,0.4C65.1,52.4,65.4,52.1,65.6,52.2L65.6,52.2z
			 M64.8,53.4L64.8,53.4L64.8,53.4L64.8,53.4L64.8,53.4L64.8,53.4z M64.8,54.6c0,0,0,0.1,0,0.1l-0.5-0.4
			C64.6,54.4,64.7,54.5,64.8,54.6L64.8,54.6z M64.3,54c0,0,0.1,0,0.2,0H64.3L64.3,54z M64,53.7c0.1-0.1,0.2-0.3,0.3-0.3
			c0,0,0,0,0,0.1C64.3,53.6,64.2,53.7,64,53.7L64,53.7z M63.6,53.7L63.6,53.7l0-0.1C63.7,53.6,63.6,53.6,63.6,53.7L63.6,53.7z
			 M63.6,54.4c0.3-0.3,0.5,0.2,0.6,0.4c0.3,0.4,1.1,0.8,0.8,1.4c-0.4,0.3-1,0-1.4,0.3c-0.2,0-0.6,0-0.7-0.2
			C63.1,55.7,63.3,55,63.6,54.4L63.6,54.4z M63.1,54.8l0.1-0.2c-0.2,0.5-0.4,1-0.7,1.4C62.4,55.6,62.9,55.2,63.1,54.8L63.1,54.8z
			 M63.9,57.2c-0.4,0-1,0.2-1.3-0.1c0-0.2-0.2-0.2-0.1-0.4c0.3-0.1,0.6,0.3,0.9,0c0.5,0,0.9-0.1,1.4,0c0.2,0.1,0.6-0.4,0.6,0.1
			C65.2,57.5,64.4,57,63.9,57.2L63.9,57.2z M65.1,54.3L65.1,54.3L65.1,54.3L65.1,54.3L65.1,54.3L65.1,54.3z M65.2,55.6
			c0,0.2,0.2,0.3,0.1,0.5C65.3,56,65.1,55.8,65.2,55.6L65.2,55.6z M65.8,56.8l-0.1,0c-0.1-0.1-0.1-0.3,0-0.4
			C65.7,56.5,65.8,56.6,65.8,56.8L65.8,56.8z M66.8,57.3c0,0.1-0.1,0.1-0.2,0c-0.6-0.8-0.9-1.6-1.3-2.4l0.1,0
			C65.9,55.6,66.3,56.5,66.8,57.3L66.8,57.3z M67.5,55.4C67.5,55.4,67.5,55.5,67.5,55.4c-0.6,0.1-1-0.2-1.4-0.5l0-0.1
			C66.6,54.8,67,55.2,67.5,55.4L67.5,55.4z M67,52.7c0.2,0.1,0.3,0.3,0.3,0.5c0,0.4-0.3,0.8-0.7,1c-0.2,0.1-0.6,0.2-0.8,0.1
			c0.5,0,1-0.2,1.2-0.7L67,52.7L67,52.7z M66.5,52.7c0.1,0.3,0.3,0.5,0.2,0.9c-0.2,0.4-0.6,0.4-1,0.5c-0.2,0-0.3,0-0.5-0.1
			c0-0.1,0-0.1-0.1-0.2c0.1-0.3-0.5-0.5-0.1-0.7C65.4,52.6,66.2,51.9,66.5,52.7L66.5,52.7z M76.7,51.2c-0.2,0.2,0,0.5-0.2,0.7
			c0,0.4-0.3,0.5-0.6,0.7c-2.4,0.5-4.7-0.3-7-0.7c-3.2-0.7-7-0.9-10.2-0.2c-1.5,0.3-3,0.6-4.5,1.1c-0.9,0.1-1.9,0.3-2.8,0
			c-0.7-0.3-0.4-1.3-0.6-1.9c0-0.5-0.1-0.9-0.2-1.4c-0.1-0.2-0.1-0.4-0.1-0.5c0.3,0,0.6,0.3,0.9,0.3c1.7,0.3,3.2-0.2,4.7-0.5
			c1.5-0.3,3-0.6,4.6-0.7c1.8,0,3.6-0.1,5.3,0.2c0.6,0,1,0.2,1.6,0.2c1.1,0.1,2.2,0.4,3.3,0.5c0.2,0.1,0.4,0.1,0.6,0.1
			c1.8,0.3,3.8,0.8,5.5,0C77.1,49.8,76.8,50.5,76.7,51.2L76.7,51.2z M76.1,48.7c0,0.3-0.3,0.2-0.4,0.4h-0.5
			c-0.1-0.2-0.1-0.4-0.1-0.6C75.5,48.6,75.8,48.6,76.1,48.7L76.1,48.7z M75.9,48.2c0.2-0.2-0.1-1.5,0.6-0.7c0,0.2,0,0.4-0.1,0.5
			C76.2,48.2,76.1,48.3,75.9,48.2L75.9,48.2z M77.5,48c-0.2,0.4-0.5,0.6-0.9,0.7c0-0.5,0.5-0.8,0.3-1.4c-0.3-0.4-0.8-0.5-1.3-0.4
			c-0.2,0.1-0.1,0.3-0.2,0.5l-0.1,0.7c-0.4,0-0.4-0.4-0.5-0.6c0-0.4,0.2-0.8,0.6-1c0.3-0.2,0.8-0.1,1.2,0c0.3,0.1,0.6,0.2,0.7,0.4
			C77.7,47.2,77.6,47.7,77.5,48L77.5,48z"/>
	</g>
</g>
<g>
	<path class="st3" d="M243.5,10.1c-1.6,53.8-6,48,37.8,69L243.5,10.1z"/>
	<path class="st4" d="M240.8,10c-3.9,55.2,2.2,46-58,79.2L240.8,10z"/>
	<path class="st0" d="M184.1,91.6c32.9-6.9,73.7-10.3,95.8-10.3C233.9,61.9,243.8,61,184.1,91.6z"/>
</g>
</svg>
